<svg width="328" height="306" viewBox="0 0 328 306" fill="none" xmlns="http://www.w3.org/2000/svg">
<g clip-path="url(#clip0_72_5429)">
<path d="M0 16C0 7.16344 7.16344 0 16 0H312C320.837 0 328 7.16344 328 16V306H0V16Z" fill="#E7CA33"/>
<path d="M280.675 271.857C284.884 268.622 288.872 265.556 292.861 262.49C293.059 262.6 293.256 262.711 293.454 262.821C293.146 263.377 292.971 264.098 292.511 264.458C290.335 266.16 288.045 267.716 285.876 269.425C284.2 270.743 282.64 272.211 280.938 273.689C283.833 277.168 286.567 280.452 289.3 283.732C289.171 283.859 289.041 283.986 288.911 284.109C286.291 281.218 283.668 278.327 281.048 275.437C280.775 275.606 280.506 275.778 280.234 275.947C280.234 277.899 280.218 279.851 280.237 281.8C280.26 284.116 280.357 286.431 280.325 288.747C280.318 289.267 279.91 289.777 279.686 290.293C279.443 290.238 279.2 290.186 278.956 290.131V275.83C274.345 278.438 271.956 283.216 267.448 285.181C267.312 285.015 267.179 284.846 267.043 284.681C270.895 281.069 274.744 277.454 278.639 273.803C275.344 270.048 272.105 266.352 268.862 262.659C268.998 262.412 269.134 262.165 269.271 261.918C269.871 262.188 270.639 262.305 271.038 262.753C273.593 265.628 276.067 268.577 278.564 271.5C278.781 271.458 278.999 271.416 279.216 271.373C279.498 265.796 279.783 260.219 280.078 254.392C281.427 255.818 281.385 255.815 281.09 259.895C280.944 261.895 281.019 263.913 280.951 265.923C280.895 267.836 280.779 269.753 280.675 271.857Z" fill="#15191C"/>
<path d="M68.8644 197.36C68.8644 199.952 68.8482 202.004 68.8709 204.057C68.8806 205.148 69.0914 206.353 67.1426 205.934V198.022C63.9356 199.279 62.1035 202.82 58.7701 203.161C58.5983 202.833 58.4231 202.508 58.248 202.18C61.0691 200.007 63.8902 197.834 67.5771 194.998C64.876 192.725 62.3921 190.63 59.905 188.538C60.1223 188.317 60.3363 188.096 60.5536 187.878C62.6321 189.821 64.7106 191.76 67.0907 193.985C67.2625 190.565 67.4214 187.404 67.603 183.786C69.7886 187.066 68.4656 190.418 69.1368 193.891C71.4585 192.127 73.6084 190.496 75.755 188.866C75.9236 188.937 76.0922 189.009 76.2641 189.083C75.9625 189.632 75.7744 190.305 75.3367 190.711C73.4333 192.491 71.4553 194.193 69.2665 196.138C71.8152 198.704 74.2537 201.157 76.6953 203.612C76.6208 203.706 76.5462 203.8 76.4684 203.895C74.0461 201.809 71.6239 199.727 68.8644 197.36Z" fill="#15191C"/>
<path d="M276.239 180.476C274.08 182.11 272.15 183.568 270.221 185.027C270.026 184.78 269.832 184.536 269.637 184.293C271.625 182.464 273.609 180.632 275.821 178.599C273.804 176.666 271.875 174.818 269.932 172.96C271.145 172.025 271.139 172.031 272.916 173.733C273.849 174.626 274.812 175.487 276.074 176.647C276.242 173.483 276.388 170.732 276.534 167.984C276.92 167.968 277.306 167.952 277.692 167.939C277.851 170.625 278.006 173.314 278.182 176.276C280.714 174.88 281.943 171.846 284.774 171.375C284.9 171.547 285.027 171.719 285.15 171.891C282.844 174.068 280.536 176.244 278.139 178.504C280.481 180.518 282.682 182.412 284.897 184.319C283.632 185.54 283.639 185.53 281.677 183.802C280.662 182.909 279.618 182.051 278.499 181.1C277.64 183.344 279.226 185.806 276.829 187.589C276.638 185.309 276.45 183.029 276.239 180.476Z" fill="#15191C"/>
<path d="M52.6704 258.465C52.9266 261.98 53.1827 265.491 53.4778 269.522C55.579 267.605 57.3138 266.02 59.0519 264.435C59.3243 264.718 59.5934 265 59.8658 265.283C58.2866 266.868 56.7075 268.45 55.031 270.132C57.2782 272.861 61.1499 273.894 63.0111 277.025C62.823 277.265 62.635 277.505 62.4437 277.746C59.668 275.706 56.889 273.666 53.7275 271.344V281.767C53.3935 281.793 53.0627 281.819 52.7288 281.845C52.5472 278.814 52.3688 275.787 52.1548 272.172C49.6093 274.082 47.3265 275.791 45.0437 277.502C44.8427 277.236 44.6416 276.97 44.4438 276.703C46.9212 274.667 49.3986 272.63 52.1191 270.392C49.7747 268.33 47.3784 266.222 44.9789 264.11C45.1929 263.838 45.4101 263.562 45.6242 263.289C47.573 264.783 49.5218 266.274 51.6457 267.901C52.3007 264.669 50.9972 261.415 51.756 258.391C52.064 258.417 52.3688 258.439 52.6704 258.465Z" fill="#15191C"/>
<path d="M135.921 128.078C136.54 127.731 137.124 127.224 137.789 127.062C141.362 126.178 144.919 125.038 148.554 124.629C154.524 123.956 160.558 123.333 166.544 123.495C176.107 123.752 185.536 125.194 194.648 128.413C204.246 131.804 213.854 135.156 222.288 141.051C227.026 144.361 231.62 147.875 236.241 151.347C236.695 151.688 236.906 152.361 237.23 152.877C236.569 152.809 235.735 152.971 235.275 152.63C231.993 150.201 228.757 147.706 225.563 145.163C217.914 139.076 209.003 135.425 200.057 131.839C188.912 127.37 177.303 124.863 165.332 124.96C156.343 125.035 147.283 125.428 138.528 128.029C137.74 128.263 136.907 128.338 136.093 128.487C136.034 128.351 135.979 128.215 135.921 128.078Z" fill="#15191C"/>
<path d="M92.4961 161.696C96.5169 153.02 102.545 146.047 110.259 140.531L110.791 140.993C109.902 141.899 109.03 142.818 108.126 143.705C104.773 146.982 101.222 150.087 98.1091 153.576C95.9333 156.008 94.3444 158.971 92.4961 161.696Z" fill="#15191C"/>
<path d="M117.146 136.192C119.789 132.652 130.081 128.205 133.194 129.075C127.912 131.417 122.818 133.678 117.146 136.192Z" fill="#15191C"/>
<path d="M259.229 158.081C257.163 161.592 255.101 165.106 253.039 168.617C252.799 168.475 252.555 168.335 252.315 168.192C254.368 164.674 256.421 161.153 258.47 157.632C258.72 157.782 258.976 157.931 259.229 158.081Z" fill="#15191C"/>
<path d="M255.154 152.377C256.02 150.685 256.885 148.996 257.751 147.304C258.105 147.502 258.458 147.703 258.812 147.901C257.861 149.548 256.911 151.191 255.961 152.838C255.692 152.686 255.423 152.533 255.154 152.377Z" fill="#15191C"/>
<path d="M253.129 170.596C254.364 168.504 255.603 166.412 256.838 164.32C257.036 164.434 257.237 164.544 257.435 164.658C256.245 166.802 255.058 168.945 253.868 171.089C253.622 170.924 253.375 170.761 253.129 170.596Z" fill="#15191C"/>
<path d="M230.751 199.123C224.327 208.292 217.903 217.462 211.48 226.631C211.191 226.43 210.906 226.228 210.617 226.024C217.073 216.867 223.533 207.708 229.989 198.552C230.245 198.743 230.498 198.935 230.751 199.123Z" fill="#15191C"/>
<path d="M179.727 275.024L188.271 260.018C188.452 260.122 188.631 260.226 188.812 260.327C187.006 265.926 183.64 270.633 180.288 275.346C180.099 275.239 179.911 275.131 179.727 275.024Z" fill="#15191C"/>
<path d="M169.078 293.947C165.209 299.729 161.338 305.507 157.469 311.289C157.258 311.149 157.048 311.006 156.833 310.867C160.67 305.062 164.502 299.258 168.338 293.454C168.585 293.619 168.831 293.785 169.078 293.947Z" fill="#15191C"/>
<path d="M179.5 271.445C181.122 268.733 182.403 266.592 183.68 264.452C184.267 266.794 182.124 270.263 179.5 271.445Z" fill="#15191C"/>
<path d="M139.012 205.213C139.631 203.339 140.241 201.462 140.866 199.591C141.619 197.34 142.316 195.063 143.182 192.854C143.506 192.029 144.161 190.886 144.822 190.766C145.572 190.63 146.687 191.305 147.293 191.955C147.867 192.569 148.052 193.589 148.305 194.462C149.362 198.136 150.468 201.8 151.363 205.512C151.664 206.759 151.924 208.669 151.259 209.338C150.345 210.261 148.558 210.443 147.102 210.651C146.087 210.797 145.001 210.339 143.947 210.345C140.13 210.371 139.051 209.225 139.012 205.213Z" fill="#15191C"/>
<path d="M177.74 202.826C178.577 205.863 177.452 208.12 175.052 208.841C176.028 206.659 176.884 204.742 177.74 202.826Z" fill="#15191C"/>
<path d="M181.593 201.407C180.938 203.385 180.286 205.366 179.631 207.344C179.3 207.243 178.966 207.146 178.632 207.045C179.213 205.045 179.793 203.04 180.37 201.04C180.779 201.16 181.184 201.283 181.593 201.407Z" fill="#15191C"/>
<path d="M151.784 201.264C154.119 202.29 154.92 204.658 153.827 206.578C153.081 204.635 152.433 202.95 151.784 201.264Z" fill="#15191C"/>
<path d="M119.638 208.822C118.937 207.299 118.234 205.775 117.533 204.249C117.861 204.09 118.191 203.927 118.522 203.768C119.262 205.275 120.001 206.782 120.74 208.289C120.37 208.468 120.004 208.647 119.638 208.822Z" fill="#15191C"/>
<path d="M170.054 180.408C166.299 185.715 162.547 191.026 158.792 196.333C158.52 196.135 158.25 195.937 157.978 195.739C161.587 190.314 164.946 184.705 169.311 179.823C169.557 180.015 169.807 180.21 170.054 180.408Z" fill="#15191C"/>
<path d="M128.5 194.157C131.305 189.853 134.107 185.546 136.911 181.243C137.106 181.285 137.3 181.327 137.495 181.369C137.547 181.795 137.8 182.36 137.618 182.63C134.985 186.514 132.3 190.363 129.602 194.206C129.476 194.388 129.106 194.401 128.853 194.492L128.5 194.157Z" fill="#15191C"/>
<path d="M167.285 188.856C169.73 185.26 172.123 181.619 175.495 178.829C175.742 179.04 175.988 179.251 176.232 179.463C173.44 182.782 170.648 186.105 167.856 189.424C167.665 189.236 167.476 189.048 167.285 188.856Z" fill="#15191C"/>
<path d="M164.447 181.408C162.229 184.845 160.008 188.281 157.79 191.718C157.43 191.484 157.073 191.247 156.716 191.013C159.022 187.615 161.327 184.221 163.633 180.824C163.902 181.019 164.174 181.213 164.447 181.408Z" fill="#15191C"/>
<path d="M136.836 234.537C143.347 234.771 150.329 235.018 157.112 235.261C154.975 238.042 139.997 237.418 136.836 234.537Z" fill="#15191C"/>
<path d="M133.039 243.891C134.563 245.207 136.087 246.519 137.808 248.003C135.817 248.27 134.699 247.396 133.039 243.891Z" fill="#15191C"/>
<path d="M84.458 260.853C85.434 260.323 86.4068 259.794 87.772 259.053C87.7136 259.748 87.8336 260.629 87.5969 260.742C86.65 261.187 85.5864 261.392 84.5683 261.687C84.5326 261.408 84.4937 261.132 84.458 260.853Z" fill="#15191C"/>
<path d="M50.0652 53.3958L58.1108 42.1682L59.6193 41.1475V43.1889L62.1336 46.7613L65.6535 43.1889L71.6877 37.5751L77.7219 35.0234L80.2361 37.0648L81.2418 40.1268L98.3387 37.0648L101.356 38.5958L104.373 38.0855L110.91 35.5337L120.464 34.513L124.99 36.0441L128.51 40.1268H129.012L134.041 38.0855L140.578 39.1061L142.589 43.1889L135.047 54.9268L138.064 60.0303L134.544 66.6648L135.047 70.7475L127.001 77.382L131.024 81.9751C130.856 83.5061 130.42 86.5682 130.018 86.5682C129.616 86.5682 121.805 89.29 117.95 90.6509L113.424 88.0992L106.384 91.6716L101.356 88.6096L95.3216 93.713L86.7732 90.6509C84.4266 88.7797 79.6327 85.0372 79.2304 85.0372C78.8282 85.0372 76.7162 86.0578 75.7105 86.5682L68.1678 90.6509L63.6421 89.6303L61.6307 87.0785C60.9603 87.4188 59.5188 88.0992 59.1165 88.0992C58.7142 88.0992 53.9204 86.7383 51.5737 86.0578H46.5453L41.0139 88.6096L39.5054 83.5061L42.5225 69.7268L50.0652 53.3958Z" fill="white"/>
<path d="M61.6603 88.1336C61.6141 88.2243 61.5842 88.282 61.5543 88.3398C61.3097 88.818 60.8912 89.0873 60.4346 89.3319C59.9236 89.6068 59.4561 89.9668 58.937 90.2197C58.5647 90.4011 58.1461 90.5165 57.7357 90.566C57.2872 90.6182 56.8062 90.6429 56.3795 90.5275C55.9283 90.4066 55.4962 90.151 55.1021 89.8789C54.5367 89.4886 54.0856 88.9746 53.7703 88.348C53.6561 88.1226 53.099 87.7433 52.8734 87.6581C51.9439 87.3146 51.0497 86.9023 50.4409 86.0558C50.4164 86.0228 50.3784 86.0008 50.3186 85.9486C50.0142 86.4186 49.7179 86.8693 49.4298 87.3256C48.946 88.0951 48.484 88.8784 47.9839 89.6343C47.5083 90.3544 47.0136 91.0662 46.4863 91.7478C46.201 92.1189 45.8476 92.4459 45.3666 92.5696C44.8012 92.7153 44.3039 92.4954 43.8391 92.237C43.0944 91.8193 42.6351 91.1377 42.3252 90.3489C42.3089 90.3076 42.2981 90.2664 42.279 90.2279C42.1296 89.9174 42.029 89.5683 41.5371 89.7305C41.1892 89.8459 40.9174 89.6343 40.6075 89.4474C39.5476 88.807 39.3193 87.7296 39.1426 86.6632C39.0013 85.8112 39.0203 84.9262 39.0013 84.0549C38.9904 83.5217 39.0529 82.9885 39.0692 82.4553C39.0828 82.0706 39.0692 81.6885 39.0855 81.3038C39.0882 81.2158 39.1671 81.1306 39.2377 80.9904C39.1507 80.8173 39.1507 80.8173 39.2975 79.8004C39.3519 79.8169 39.4062 79.8333 39.4905 79.8608C39.4171 79.4348 39.3954 79.0336 39.5122 78.6268C39.6943 77.9891 39.7759 77.3185 40.1781 76.7606C40.3303 76.5517 40.2216 76.2686 39.9879 76.1862C40.064 75.8893 40.1401 75.5925 40.2243 75.2572C40.4227 75.238 40.4852 75.0868 40.4037 74.8587C40.333 74.6608 40.3575 74.5124 40.5668 74.4876C40.5939 74.3392 40.6157 74.2128 40.6402 74.0836C40.6836 73.8363 40.6646 73.5669 40.8875 73.3855C40.8521 73.3525 40.7924 73.325 40.7842 73.2866C40.7652 73.1986 40.7353 73.0475 40.7733 73.0227C41.0968 72.8221 41.0261 72.4538 41.1402 72.1707C41.2408 71.9233 41.2761 71.6485 41.3821 71.4011C41.5316 71.0493 41.692 70.7113 41.6648 70.3128C41.6594 70.2248 41.7545 70.1039 41.836 70.0407C42.0154 69.9005 42.2328 69.2244 42.1812 69.0018C42.1676 68.9413 42.1323 68.8616 42.154 68.8204C42.3443 68.4823 42.5454 68.1525 42.7683 67.7787C42.6133 67.8034 42.4611 67.8282 42.2763 67.8584C42.4938 67.3747 42.6759 66.8992 43.1433 66.5172C43.2684 66.5199 43.3825 66.3385 43.3254 65.9373C43.2901 65.6844 43.4206 65.6047 43.6217 65.5222C43.4668 65.3408 43.4912 65.1814 43.7603 65.0468C43.7413 65.1814 43.7277 65.2749 43.7168 65.3711C43.7358 65.3711 43.7549 65.3711 43.7712 65.3711C43.7712 65.2089 43.7712 65.044 43.7712 64.8846C43.8065 64.9038 43.869 64.9368 44.0103 65.0138C43.9234 64.8351 43.8717 64.7279 43.8092 64.5933C43.8935 64.5768 43.956 64.5658 43.9804 64.5603C44.0103 64.3816 44.0103 64.2085 44.0729 64.0628C44.2278 63.711 44.4153 63.373 44.6164 63.0459C44.7224 62.7875 44.6898 62.4797 44.9725 62.2736C45.0594 62.2104 45.054 62.018 45.0975 61.8861C45.1355 61.7761 45.1818 61.6689 45.2252 61.559C45.6193 61.7321 45.815 61.5947 46.0107 61.0093C45.8368 61.166 45.6764 61.3089 45.5269 61.4463C45.4155 61.1605 45.4345 60.9186 45.8422 60.7812C45.7906 60.6108 45.5296 60.3359 46.0026 60.3772C46.0297 60.3799 46.0759 60.237 46.1004 60.1573C46.1385 60.0226 46.1629 59.8879 46.239 59.7808C46.2227 59.7093 46.1711 59.6131 46.201 59.5664C46.2798 59.4317 46.3885 59.319 46.5108 59.1706C46.3966 59.0057 46.5081 58.6731 46.8071 58.5659C46.9728 58.5055 47.0354 58.4588 47.0027 58.2471C46.9783 58.0795 47.087 57.8816 47.1685 57.7112C47.3452 57.3346 47.5409 56.9691 47.7339 56.6008C47.761 56.5486 47.8127 56.5074 47.8562 56.4579C48.3019 56.9499 47.7175 57.2577 47.761 57.7002C47.9051 57.3979 48.0709 57.1065 48.1796 56.7905C48.2149 56.6833 48.1198 56.5156 48.0546 56.3947C47.9295 56.1611 48.1252 55.8615 48.3508 55.7488C48.503 55.6746 48.6579 55.3888 48.6335 55.2266C48.6009 55.0287 48.6579 54.9627 48.7884 54.9682C49.1173 54.9847 49.1879 54.6714 49.1499 54.5395C49.0819 54.3114 49.2042 54.1932 49.2749 54.042C49.3727 53.8359 49.4869 53.6353 49.6038 53.4374C49.7125 53.256 49.7859 53.0498 50.0549 53.0141C50.1473 53.0031 50.218 52.8437 50.2615 52.7035C50.1935 52.7365 50.1283 52.7722 50.0604 52.8052C50.0413 52.7915 50.0223 52.775 50.0033 52.7613C50.1174 52.5551 50.2289 52.3462 50.3485 52.1429C50.4273 52.0109 50.5115 51.8818 50.6148 51.7718C50.6502 51.7333 50.7426 51.7526 50.8785 51.7361C50.8703 51.6949 50.8486 51.5602 50.8241 51.4283C51.21 51.4118 51.4193 51.1946 51.316 50.9006C51.2318 51.0132 51.1502 51.1177 51.0714 51.2249C51.0524 51.2111 51.0361 51.2001 51.0171 51.1864C51.2073 50.7879 51.4139 50.3976 51.5851 49.9908C51.7563 49.5786 51.8895 49.1498 52.0499 48.7046C52.1586 48.7485 52.2646 48.7898 52.4195 48.853C52.1749 48.5204 52.5092 48.4682 52.6261 48.3115C52.6532 48.2758 52.7511 48.2703 52.7511 48.2483C52.7538 47.6354 53.3164 47.3358 53.5148 46.8439C53.6697 46.4646 54.0068 46.2035 54.0856 45.7445C54.0856 45.7445 54.0448 45.684 54.0095 45.6291C54.0312 45.5988 54.0502 45.5658 54.0584 45.5686C54.2622 45.6181 54.3166 45.5026 54.4117 45.3377C54.727 44.788 55.0912 44.2658 55.4282 43.7271C55.6891 43.3094 55.9147 42.8696 56.2001 42.4711C56.4148 42.1715 56.6975 41.9242 56.9529 41.6548C57.1215 41.4762 57.29 41.292 57.4721 41.1271C57.9613 40.6791 58.5755 40.4895 59.1871 40.2971C59.4344 40.2201 59.9073 40.44 60.0595 40.6434C60.1302 40.7368 60.2389 40.8248 60.3503 40.8605C60.5677 40.9347 60.6683 41.0199 60.5976 41.2838C60.5569 41.4349 60.6411 41.6191 60.6737 41.8087C60.6656 41.8857 60.6438 42.0039 60.6384 42.1221C60.6248 42.4546 60.883 42.7817 60.6547 43.128C60.7797 43.2874 60.8993 43.3918 61.1439 43.4166C61.3423 43.4358 61.5299 43.6694 61.7011 43.8316C62.0979 44.2054 62.511 44.5709 62.8589 44.9887C63.0247 45.1866 63.0519 45.4999 63.1742 45.8489C63.2095 45.5164 63.2367 45.2663 63.2612 45.0134C63.2884 45.0134 63.3155 45.0134 63.3427 45.0134C63.3699 45.0739 63.3971 45.1343 63.4569 45.2745C63.5656 45.1014 63.6471 44.9667 63.7613 44.7798C63.6471 44.7853 63.5955 44.788 63.4759 44.7963C63.5601 44.6314 63.6335 44.4912 63.7232 44.3181C63.7993 44.406 63.8401 44.4555 63.8917 44.5159C63.976 44.4115 64.0412 44.3291 64.0657 44.2988C64.0657 44.1037 64.0657 43.9635 64.0657 43.8206C64.0929 43.8178 64.12 43.8151 64.1472 43.8123C64.1934 43.8646 64.2396 43.914 64.2967 43.98C64.5141 43.6969 64.7207 43.4303 64.9272 43.1637C64.9082 43.1472 64.8919 43.1307 64.8729 43.1142C64.8104 43.1582 64.7479 43.2022 64.6854 43.2462C64.6609 43.2242 64.6391 43.2022 64.6147 43.1802C64.9327 42.7789 65.2534 42.3777 65.5741 41.9791C65.6149 41.9297 65.6855 41.839 65.71 41.85C66.0769 42.0121 66.0878 41.6328 66.2454 41.4927C66.6096 41.1711 66.6232 40.5637 67.1423 40.3603C67.1532 40.3576 67.1641 40.3576 67.1994 40.3521C67.1967 40.407 67.194 40.4565 67.1885 40.6187C67.3761 40.4125 67.5092 40.2641 67.6424 40.1157C67.6315 40.102 67.6207 40.0855 67.6125 40.0717C67.531 40.1157 67.4495 40.1624 67.3652 40.2064C67.3435 40.1762 67.3217 40.1459 67.3 40.1184C67.7131 39.7254 68.292 39.544 68.7024 39.118C68.6616 39.0713 68.6181 39.0218 68.5529 38.9476C68.947 38.9586 69.1807 38.8377 69.246 38.4364C69.265 38.321 69.4824 38.2385 69.6428 38.1835C69.7189 38.0544 69.7216 37.851 70.0016 37.9197C70.045 37.9307 70.1347 37.7465 70.2108 37.6421C70.3223 37.6256 70.5044 37.5954 70.6892 37.5652C70.6837 37.5294 70.681 37.4937 70.6756 37.458C70.5859 37.4662 70.4962 37.4717 70.3793 37.4799C70.7463 37.1474 71.0887 36.8368 71.4312 36.5262C71.4583 36.54 71.4828 36.5565 71.51 36.5702C71.4312 36.7186 71.3551 36.867 71.2572 37.0512C71.6432 36.8176 72.0155 36.595 72.3879 36.3696C72.3743 36.3448 72.3607 36.3201 72.3498 36.2926C72.1351 36.4136 71.9177 36.5372 71.703 36.6582C71.6839 36.6389 71.6676 36.6197 71.6486 36.6004C71.7274 36.5125 71.7872 36.3916 71.8851 36.3366C72.4422 36.0233 73.0103 35.7264 73.5729 35.4214C73.7577 35.3224 73.9289 35.152 74.1219 35.13C74.7551 35.0531 75.3069 34.6848 75.9347 34.6298C76.606 34.5721 77.2882 34.5061 77.9568 34.5584C78.2993 34.5858 78.6227 34.8607 78.9543 35.0256C79.2206 35.1575 79.4979 35.2565 79.6637 35.5505C79.718 35.6467 79.9871 35.6165 80.0496 35.7127C80.3866 36.2486 80.7128 36.7956 80.9873 37.3673C81.0498 37.4992 80.8922 37.7411 81.221 37.8427C81.0715 37.3728 80.9329 36.9385 80.7943 36.5043C80.8242 36.496 80.8541 36.4905 80.884 36.4823C81.395 37.3068 81.4466 38.2303 81.4031 39.2389C81.8244 39.1977 82.2076 39.1922 82.5772 39.118C83.1806 38.9971 83.7677 38.7855 84.3765 38.6948C85.1891 38.5766 85.9556 38.3292 86.703 38.0049C87.3607 37.7191 88.0293 37.5706 88.7496 37.5789C89.1545 37.5844 89.5595 37.4525 89.9672 37.3838C90.7037 37.2628 91.443 37.1501 92.1796 37.0155C92.4541 36.9632 92.7123 36.8286 92.9868 36.7791C93.389 36.7076 93.7994 36.6911 94.2044 36.6307C94.4762 36.5895 94.7425 36.4658 95.0116 36.4548C95.2916 36.4438 95.5769 36.5675 95.8569 36.5592C96.4494 36.5427 97.0419 36.4685 97.6344 36.4465C97.7703 36.441 97.9089 36.5427 98.0475 36.595C98.0665 36.6032 98.0828 36.6252 98.1019 36.6252C98.5938 36.6719 99.083 36.7186 99.575 36.7571C99.6076 36.7599 99.6429 36.7076 99.6402 36.7076C99.8332 36.8286 99.9989 36.999 100.195 37.0429C100.678 37.1529 100.969 37.5542 101.38 37.7658C101.429 37.7905 101.461 37.8592 101.494 37.9115C101.706 38.2413 102.018 38.2687 102.285 37.9802C102.32 37.9417 102.366 37.9142 102.415 37.8922C102.967 37.6394 103.516 37.381 104.073 37.1446C104.318 37.0402 104.587 36.988 104.84 36.9C105.842 36.551 106.834 36.158 107.848 35.8529C108.751 35.5808 109.68 35.3994 110.596 35.1768C111.208 35.0283 111.814 34.8552 112.428 34.7205C113.849 34.4127 115.268 34.1131 116.741 34.1461C117.505 34.1626 118.274 34.0142 119.041 34.0004C119.5 33.9922 119.959 34.1049 120.418 34.1626C120.674 34.1956 120.932 34.2588 121.188 34.2588C121.742 34.2615 122.286 34.2615 122.821 34.4842C123.139 34.6161 123.511 34.6106 123.851 34.7013C124.009 34.7425 124.145 34.8634 124.289 34.9514C124.824 35.2757 125.357 35.6083 125.895 35.9243C125.958 35.9601 126.058 35.9298 126.074 35.9298C126.308 36.136 126.512 36.3091 126.708 36.4878C126.792 36.562 126.865 36.6499 126.99 36.7763C127.124 36.7351 127.224 36.7654 127.276 37.0265C127.322 37.2518 127.507 37.458 127.662 37.6476C127.836 37.862 128.064 38.0351 128.227 38.255C128.368 38.4446 128.458 38.6728 128.553 38.8926C128.7 39.2362 128.833 39.5852 128.958 39.9041C129.445 39.5852 129.888 39.2307 130.385 38.9861C131.143 38.6096 131.937 38.3045 132.717 37.9747C133.119 37.8043 133.513 37.5789 133.932 37.4854C134.728 37.3095 135.525 37.1529 136.356 37.1364C137.313 37.1172 138.174 37.4002 139.044 37.7218C140.044 38.0901 140.901 38.6563 141.566 39.5028C141.939 39.9783 142.311 40.4538 142.664 40.943C143.029 41.4459 143.048 42.0369 143.037 42.6278C143.034 42.8531 143.015 43.0813 143.05 43.3011C143.067 43.4111 143.175 43.5238 143.271 43.5952C143.765 43.9635 144.241 44.3428 144.499 44.9337C144.537 45.0217 144.605 45.1179 144.6 45.2031C144.551 45.8434 144.589 46.5141 144.398 47.1105C144.159 47.8635 143.811 48.6166 143.36 49.2625C142.735 50.1557 141.971 50.9473 141.265 51.7801C140.958 52.1401 140.661 52.5111 140.338 52.8547C140.148 53.0581 139.911 53.2175 139.699 53.4016C139.232 53.8084 138.762 54.2097 138.302 54.6247C138.101 54.8061 137.927 55.0205 137.742 55.2211C137.631 55.342 137.484 55.4465 137.422 55.5894C137.144 56.216 136.696 56.7053 136.218 57.1917C136.775 57.4061 137.31 57.6122 137.846 57.8156C138.117 57.9173 138.362 58.019 138.476 58.3488C138.55 58.5632 138.748 58.7363 138.903 58.915C139.139 59.1871 139.234 59.4812 139.153 59.844C139.085 60.149 139.359 60.2617 139.52 60.4376C139.83 60.7812 140.202 61.0918 140.414 61.4903C140.629 61.8971 140.61 62.4 140.49 62.859C140.387 63.2548 140.229 63.6341 140.12 64.0271C139.96 64.618 139.476 64.9121 139.009 65.143C138.142 65.5662 137.403 66.1571 136.644 66.7343C136.237 67.0449 135.791 67.2977 135.361 67.5781C135.272 67.6358 135.182 67.6935 135.065 67.7705C135.185 67.8694 135.31 67.9409 135.386 68.0453C135.481 68.1772 135.541 68.3366 135.611 68.4851C135.625 68.5125 135.612 68.5593 135.631 68.5812C136.019 68.999 135.932 69.5982 136.185 70.0627C136.267 70.2111 136.402 70.3293 136.517 70.4584C136.72 70.692 136.951 70.9064 137.125 71.1593C137.413 71.577 137.346 71.9343 136.932 72.2064C136.06 72.7754 135.171 73.3196 134.301 73.8912C133.897 74.1578 133.513 74.4602 133.138 74.768C132.649 75.1693 132.217 75.653 131.69 75.9883C130.967 76.45 130.407 77.0877 129.763 77.6318C129.523 77.8352 129.379 78.1486 129.189 78.4097C129.124 78.5004 129.051 78.5883 128.955 78.7065C129.108 78.7669 129.273 78.8302 129.439 78.8934C129.48 78.9099 129.553 78.9071 129.559 78.9291C129.651 79.2424 129.969 79.2314 130.165 79.3853C130.714 79.8251 131.219 80.3116 131.537 80.9657C131.654 81.2076 131.806 81.4302 131.953 81.6556C132.19 82.0266 132.127 82.4334 132.105 82.8896C132.263 82.8621 132.415 82.8346 132.608 82.8017C133.005 83.0792 133.263 83.5245 133.337 84.0659C133.375 84.3518 133.358 84.6486 133.326 84.9372C133.274 85.3989 133.252 85.8772 133.103 86.3059C132.972 86.6797 132.717 87.0233 132.461 87.3338C132.07 87.8093 131.654 88.2765 131.203 88.6943C130.755 89.1093 130.271 89.4996 129.76 89.8294C129.015 90.3104 128.254 90.7804 127.461 91.1651C126.401 91.6764 125.311 92.1271 124.215 92.5531C123.835 92.7015 123.395 92.707 122.981 92.762C122.617 92.8115 122.248 92.8747 121.883 92.8719C121.076 92.8609 120.264 92.8527 119.462 92.7647C118.926 92.7043 118.402 92.5201 117.88 92.3662C117.51 92.2563 117.266 91.9842 117.084 91.6406C116.942 91.3713 116.793 91.1349 116.418 91.1074C116.056 91.0827 115.847 90.6649 115.869 90.2884C115.882 90.063 115.844 89.8184 115.559 89.6947C115.309 89.5875 115.091 89.4061 114.806 89.222C114.624 89.4199 114.404 89.67 114.17 89.9064C113.675 90.4066 113.178 90.9013 112.675 91.3905C112.376 91.6846 112.083 91.9897 111.751 92.2425C111.474 92.4542 111.142 92.5916 110.841 92.7675C110.751 92.8197 110.596 92.8939 110.599 92.9516C110.62 93.3419 110.3 93.4463 110.085 93.6277C109.677 93.6003 109.335 93.2759 108.892 93.4408C108.525 93.5755 108.144 93.7047 107.761 93.7569C107.03 93.8559 106.337 93.6855 105.674 93.3611C104.761 92.9159 103.845 92.4679 103.152 91.6956C102.874 91.3878 102.701 90.992 102.47 90.6402C102.339 90.4423 102.2 90.2527 102.048 90.0713C101.937 89.9393 101.801 89.8294 101.676 89.7085C101.426 90.2307 101.168 90.7886 100.893 91.3355C100.806 91.506 100.687 91.6626 100.567 91.811C100.059 92.4432 99.5695 93.0945 99.0205 93.691C98.746 93.9878 98.3655 94.1884 98.023 94.4193C97.705 94.6364 97.387 94.8673 97.0446 95.0322C96.7945 95.1531 96.4983 95.1889 96.2238 95.2521C95.9031 95.3263 95.5796 95.3895 95.2562 95.4555C95.1937 95.4692 95.1285 95.4967 95.066 95.4939C94.4408 95.4609 93.8076 95.4664 93.1906 95.3758C92.7096 95.3043 92.2448 95.1092 91.7746 94.969C91.4104 94.8618 91.0163 94.8096 90.6874 94.6364C90.0542 94.3039 89.41 93.9576 88.8556 93.5123C88.0647 92.8774 87.3444 92.1491 86.6052 91.4537C86.5209 91.3768 86.4937 91.2394 86.4638 91.1761C85.9067 90.7556 85.3495 90.3763 84.844 89.9366C84.3656 89.5216 83.9308 89.0571 83.4986 88.5926C83.1752 88.2436 82.8708 87.8753 82.5936 87.4905C82.4142 87.2404 82.2511 87.0837 81.9086 87.081C81.52 87.0782 81.134 86.9298 80.7454 86.9023C80.2208 86.8638 79.6936 86.8666 79.1663 86.8831C78.9516 86.8886 78.7206 86.9408 78.533 87.037C77.9894 87.3201 77.4486 87.6114 76.9376 87.9522C76.5517 88.2078 76.2119 88.5321 75.8613 88.8372C75.3476 89.2797 74.8312 89.7195 74.3366 90.184C73.8501 90.6429 73.4044 91.1487 72.9179 91.6104C72.0699 92.4129 71.1349 93.122 70.0179 93.4491C69.159 93.6992 68.2866 93.5948 67.4712 93.0561C66.7075 92.5531 65.9546 92.0501 65.3295 91.3795C65.0441 91.0744 64.7316 90.8711 64.3347 90.7117C63.1905 90.2472 62.2827 89.4858 61.7935 88.2958C61.7799 88.2738 61.7527 88.2491 61.6603 88.1336ZM83.4334 54.7594C83.8954 54.7456 84.0558 55.1826 84.1699 55.4492C84.3602 55.8972 84.2053 56.4222 84.1101 56.9114C83.9661 57.6535 83.8139 58.3928 83.7269 59.1431C83.6481 59.8137 83.6562 60.4953 83.6155 61.1687C83.5584 62.1224 83.4687 63.0761 83.4307 64.0298C83.4035 64.7252 83.4388 65.4205 83.4361 66.1186C83.4361 66.3605 83.3736 66.6079 83.4008 66.847C83.447 67.2702 83.5475 67.6853 83.6046 68.1058C83.6264 68.2624 83.553 68.4356 83.5774 68.5922C83.6264 68.9221 83.7215 69.2464 83.784 69.5734C83.9335 70.3677 84.2515 71.0878 84.6184 71.8079C84.9418 72.4401 85.3875 72.8963 86.0208 73.1189C86.404 73.2536 86.8443 73.3608 87.233 73.0172C87.3879 72.8798 87.6026 72.8111 87.7874 72.7039C87.9478 72.6132 88.119 72.5335 88.2549 72.4126C88.6164 72.091 88.9589 71.7502 89.3149 71.4259C89.3638 71.3819 89.4562 71.3819 89.5785 71.3489C89.5052 71.4863 89.4698 71.5551 89.4345 71.621C89.4481 71.6293 89.4617 71.6375 89.4753 71.6485C89.5459 71.5715 89.6166 71.4946 89.6845 71.4204C89.5024 71.195 89.6791 70.9119 90.0977 70.7415C90.0977 70.8047 90.0977 70.8597 90.0977 70.9861C90.3232 70.7223 90.5108 70.5024 90.6956 70.2853C90.6739 70.266 90.6521 70.2495 90.6304 70.2303C90.489 70.3787 90.3504 70.5299 90.2091 70.6783C90.1819 70.6563 90.1574 70.6371 90.1303 70.6151C90.1873 70.5216 90.239 70.4254 90.3042 70.3402C90.875 69.6119 91.4349 68.8726 92.0355 68.169C92.2122 67.9628 92.2557 67.5863 92.6525 67.5863C92.7204 67.5863 92.7884 67.3912 92.8563 67.284C92.6552 67.1576 92.8346 67.0559 92.8889 66.9679C93.1254 66.5996 93.3836 66.2423 93.6228 65.874C94.0984 65.132 94.5849 64.3981 95.0306 63.6396C95.441 62.9415 95.8215 62.2214 96.1803 61.493C96.5798 60.685 97.0229 59.8962 97.3843 59.0689C97.5556 58.6814 97.7866 58.3186 97.9415 57.9256C98.1698 57.3484 98.3573 56.7575 98.553 56.1666C98.9526 54.9545 99.3711 53.7507 99.7326 52.5276C100.037 51.497 100.287 50.4471 100.54 49.3999C100.763 48.4819 100.996 47.564 101.154 46.6322C101.333 45.5631 101.401 44.472 101.575 43.4028C101.752 42.3364 101.703 41.2865 101.497 40.1349C100.833 40.473 100.211 40.7918 99.5885 41.1106C99.6565 41.2563 99.6945 41.336 99.7027 41.3525C99.4119 41.4652 99.1455 41.5669 98.8819 41.6658C98.9281 41.7318 98.9607 41.773 99.0232 41.8582C98.8302 41.8087 98.6971 41.7758 98.5394 41.7345C98.5911 41.6273 98.6291 41.5504 98.6536 41.4982C98.466 41.4734 98.2867 41.4487 98.1508 41.4295C98.129 41.2261 98.1671 41.0337 98.0883 40.9595C97.8491 40.7286 97.9496 40.5554 98.1073 40.3548C98.5422 39.8134 99.1211 39.4753 99.738 39.1977C100.048 39.0576 100.355 38.9146 100.733 38.7415C100.537 38.5986 100.417 38.4914 100.282 38.4172C99.5994 38.0461 98.8547 37.895 98.091 37.8867C97.3028 37.8785 96.5119 37.906 95.7237 37.9499C94.9518 37.9939 94.1772 38.0434 93.4135 38.1506C92.4079 38.2935 91.4077 38.4886 90.4102 38.6755C89.815 38.7882 89.2225 38.9174 88.6327 39.0548C88.0076 39.2005 87.3906 39.3681 86.7655 39.5165C86.0127 39.6979 85.2571 39.8711 84.5042 40.047C84.4526 40.058 84.4037 40.0772 84.3547 40.0965C84.2379 40.1459 84.1292 40.2091 84.0096 40.2504C83.8791 40.2943 83.7432 40.3273 83.61 40.3493C83.3437 40.3905 83.0746 40.4208 82.8083 40.4593C82.7593 40.4675 82.7077 40.4757 82.6615 40.4977C82.5609 40.5445 82.4685 40.6269 82.3652 40.6434C82.1043 40.6846 81.8407 40.6819 81.5798 40.7231C81.4466 40.7451 81.3216 40.822 81.1476 40.8908C81.2645 40.9127 81.3325 40.9265 81.433 40.9457C81.3841 41.5092 81.3433 42.0588 81.2835 42.6058C81.2237 43.1775 81.1612 43.7519 81.077 44.3208C80.9737 45.0052 81.0444 45.7417 80.4926 46.3409C80.5959 46.3409 80.6475 46.3409 80.7481 46.3409C80.6747 46.624 80.6041 46.8961 80.5361 47.1572C81.1803 46.7752 81.8325 46.3849 82.4848 45.9974C82.9578 45.717 83.4116 45.3899 83.9117 45.1756C85.1103 44.6644 86.3687 44.494 87.6597 44.6809C88.2305 44.7633 88.7958 44.8622 89.2904 45.2195C90.1167 45.8187 90.2444 46.8081 90.6575 47.6382C90.6657 47.6574 90.6222 47.6986 90.6276 47.7234C90.6684 47.9542 90.7146 48.1851 90.7581 48.4132C90.8097 48.9986 90.8614 49.5951 90.8804 50.1942C90.8994 50.8209 90.8858 51.4502 90.8858 52.0686C90.6412 52.1429 90.4292 52.9784 90.557 53.3329C90.7608 53.0608 90.9647 52.8107 91.1413 52.5441C91.6876 51.7223 92.2149 50.8868 92.7666 50.0705C92.8645 49.9249 93.0547 49.8424 93.2015 49.7297C93.2504 49.7077 93.226 49.5758 93.2694 49.5456C93.4461 49.4274 93.6418 49.3394 93.8212 49.246C93.8592 49.3724 93.9027 49.5153 93.9408 49.6335C94.0984 49.6555 94.2343 49.6748 94.3783 49.694C94.3376 49.8259 94.3022 49.9606 94.2506 50.0898C94.0576 50.5735 93.938 51.0847 93.5249 51.4695C93.3483 51.6344 93.0248 51.8405 93.177 52.1291C93.0031 52.3572 92.8373 52.5276 92.7259 52.731C92.2203 53.649 91.7148 54.5697 91.2446 55.5069C91.0326 55.9302 90.9049 56.3947 90.7445 56.8399C90.6766 57.0351 90.6222 57.233 90.5597 57.4446C90.5842 57.4446 90.5271 57.4446 90.4727 57.4446C90.4754 57.4941 90.47 57.5435 90.4836 57.5875C90.4972 57.6452 90.5271 57.7002 90.5488 57.7579C90.4863 57.7442 90.4238 57.7304 90.3124 57.7057C90.2009 58.2939 90.0922 58.8793 89.9754 59.4894C89.6383 59.5197 89.6112 59.5966 89.8721 60.1628C89.7851 60.1023 89.7362 60.0666 89.6519 60.0061C89.6139 60.1298 89.5704 60.2288 89.5595 60.3304C89.5405 60.5063 89.6112 60.7647 89.5187 60.8471C89.2904 61.0533 89.2306 61.2979 89.1872 61.5672C89.1545 61.7706 89.1382 61.9795 89.0948 62.1801C88.9697 62.7683 88.8474 63.3592 88.6979 63.9419C88.6545 64.1095 88.5186 64.2497 88.4316 64.4091C88.3582 64.5438 88.2957 64.684 88.225 64.8186C88.1978 64.8709 88.1598 64.9176 88.1109 64.9945C88.0701 64.9011 88.0457 64.8461 88.0185 64.7829C87.8201 64.8324 87.6244 64.8819 87.4097 64.9368C87.4015 64.8709 87.3934 64.7802 87.3825 64.6867C87.1487 64.6235 86.8661 64.2607 86.9014 63.9886C86.9558 63.5434 87.0427 63.0981 87.146 62.6584C87.3254 61.8778 87.5265 61.1028 87.7168 60.3249C87.9614 59.319 88.2169 58.3158 88.4479 57.3072C88.5322 56.9416 88.5376 56.5596 88.6001 56.1886C88.6844 55.6718 88.7985 55.1606 88.88 54.6439C88.9616 54.1355 89.0187 53.6243 89.0839 53.1158C89.1545 52.5661 89.3013 52.0082 89.266 51.4667C89.2198 50.7769 89.4127 50.0925 89.247 49.4027C89.1654 49.0591 89.2089 48.6881 89.16 48.3335C89.0703 47.6794 88.8746 47.072 88.3609 46.6075C87.9451 46.2337 87.4858 46.1265 86.9367 46.1733C86.1513 46.242 85.3712 46.3189 84.6293 46.5938C84.2379 46.7394 83.8628 46.9236 83.4905 47.116C83.1208 47.3056 82.7784 47.5612 82.3979 47.7234C82.0364 47.8773 81.7999 48.1879 81.4602 48.3693C81.0878 48.5671 80.759 48.8475 80.4165 49.1003C80.0768 49.3504 79.7697 49.6308 79.718 50.0898C79.7071 50.186 79.7153 50.2904 79.6854 50.3811C79.4027 51.2661 79.1364 52.1566 78.8211 53.0278C78.3917 54.2179 77.9296 55.397 77.473 56.5761C77.2909 57.0488 77.0626 57.5023 76.886 57.9778C76.7446 58.3571 76.7039 58.7776 76.5245 59.1321C76.3859 59.407 76.2581 59.6791 76.1331 59.9594C75.9945 60.2672 76.0462 60.7235 75.6222 60.8746C75.614 60.8774 75.6113 60.8939 75.6058 60.9021C75.4672 61.1852 75.5461 61.5617 75.2389 61.7789C75.2199 61.7926 75.2281 61.8421 75.2172 61.8723C75.1846 61.9493 75.1438 62.0262 75.1139 62.1032C75.0324 62.3203 74.6627 62.4165 74.8177 62.7436C74.7443 62.8508 74.7388 62.9827 74.6845 63.0844C74.5839 63.274 74.6546 63.6066 74.2958 63.5928C74.4834 64.0243 74.1273 64.2525 73.9425 64.5465C73.9697 64.4201 73.9969 64.2909 74.024 64.1645C73.8936 64.3212 73.8419 64.5026 73.774 64.6785C73.7115 64.8379 73.6299 64.9918 73.5403 65.1842C73.6761 65.4315 73.6598 65.4838 73.1407 66.3055C73.1217 66.2203 73.1081 66.1544 73.0891 66.0719C72.9641 66.2945 72.8581 66.4952 72.7412 66.6848C72.2819 67.4352 72.04 68.2982 71.5127 69.0155C71.3822 69.1941 71.423 69.5157 71.279 69.6724C70.8876 70.1011 70.7354 70.6673 70.3576 71.1071C70.0016 71.5193 69.7787 72.0443 69.4852 72.5115C68.7214 73.7236 67.9523 74.9329 67.1885 76.1449C67.1478 76.2082 67.1315 76.2851 67.1016 76.3566C67.4196 76.1862 67.4359 75.7519 67.743 75.5925C67.7729 75.6172 67.8001 75.642 67.83 75.6667C67.5663 76.0817 67.3027 76.494 67.0391 76.909C67.0092 76.9008 66.9765 76.8925 66.9466 76.8843C66.9412 76.7853 66.9358 76.6864 66.9276 76.5105C66.7102 76.9502 66.751 77.4505 66.3324 77.7143C66.3242 77.6483 66.3161 77.5934 66.3079 77.5192C66.1258 77.7555 65.9655 77.9644 65.8133 78.1623C65.8785 78.2063 65.9247 78.2393 65.9736 78.2722C65.9274 78.3272 65.8595 78.4399 65.8377 78.4316C65.6257 78.3492 65.6203 78.4756 65.604 78.6268C65.6013 78.6653 65.5225 78.6927 65.4817 78.7285C65.3132 78.8796 65.0169 78.9483 65.1284 79.2864C65.1474 79.3469 65.1447 79.4128 65.1501 79.476C65.0849 79.4348 65.0197 79.3963 64.9327 79.3414C64.7479 79.6217 64.5576 79.9048 64.3701 80.1906C64.3538 80.2181 64.3483 80.2703 64.3619 80.3006C64.4924 80.5974 64.2124 80.6139 64.0738 80.7266C64.0793 80.6551 64.082 80.5864 64.0874 80.515C64.0657 80.5095 64.0439 80.5012 64.0222 80.4957C63.9379 80.6606 63.8564 80.8255 63.7721 80.9932C63.7069 81.0976 63.5873 81.1828 63.4949 81.2928C63.4677 81.323 63.5493 81.4439 63.5248 81.4797C63.3101 81.76 63.0818 82.0321 62.8535 82.3042C62.8453 82.3152 62.8182 82.3069 62.7964 82.3097C62.8019 82.2382 62.81 82.1668 62.8154 82.0981C62.5926 82.3372 62.454 82.6203 62.2773 82.8759C62.1414 83.0738 62.0436 83.2442 62.0191 83.508C61.9593 84.1209 62.2202 84.6706 62.3344 85.234C62.5301 86.207 62.7258 87.2019 63.3183 88.0677C63.802 88.774 64.3402 89.3319 65.2235 89.288C66.066 89.2467 66.7727 88.8317 67.338 88.1968C67.8164 87.6609 68.2648 87.0975 68.7595 86.578C69.2895 86.0228 69.8548 85.4979 70.412 84.9702C70.6076 84.7833 70.8686 84.6541 71.0289 84.4452C71.4801 83.8488 72.0889 83.4503 72.6977 83.0628C73.3038 82.678 73.9262 82.3097 74.5731 82.0046C75.0269 81.7902 75.527 81.6721 76.0163 81.5429C76.3043 81.4659 76.6088 81.4384 76.9077 81.4082C77.1279 81.3862 77.3589 81.3532 77.5736 81.3917C78.62 81.5813 79.5848 82.0238 80.3839 82.6945C81.2074 83.3871 81.9304 84.2144 82.6289 85.0416C83.3546 85.8991 83.9579 86.8666 84.6945 87.7131C85.4501 88.5816 86.2301 89.4611 87.2982 89.9641C87.8554 90.2279 88.437 90.456 89.0268 90.6292C89.4725 90.7611 89.9509 90.7749 90.4129 90.8546C91.3289 91.0085 92.2312 90.8876 93.1009 90.6374C94.0902 90.3516 94.8621 89.637 95.547 88.9197C96.2482 88.1858 96.7973 87.2953 97.3517 86.4323C97.6425 85.9788 97.7839 85.4264 98.0312 84.9399C98.2133 84.5799 98.0475 84.3078 97.9007 84.0137C97.8192 83.8516 97.705 83.6894 97.6806 83.5135C97.6561 83.3349 97.667 83.0957 97.7676 82.9693C97.8409 82.8786 98.0964 82.8924 98.2541 82.9281C98.6672 83.016 98.6645 83.0325 98.765 82.6148C98.7759 82.5735 98.8031 82.5351 98.8139 82.4938C98.9906 81.7463 99.1999 81.0042 99.3331 80.2484C99.5016 79.2974 99.632 78.3382 99.7299 77.379C99.863 76.068 99.6891 74.801 99.17 73.5697C98.7297 72.5253 97.898 71.9398 97.0093 71.3819C96.8462 71.2802 96.7049 71.1373 96.5363 71.0521C96.3298 70.9477 96.0988 70.8927 95.884 70.7965C95.3051 70.5354 94.7208 70.2908 94.1636 69.9884C93.7587 69.7686 93.2314 69.7109 93.0411 69.2024C92.4378 69.961 91.8589 70.7113 91.2582 71.4424C90.6983 72.1267 90.1765 72.8468 89.3992 73.3168C89.1464 73.4707 88.9426 73.7043 88.7034 73.8802C88.4968 74.0314 88.2848 74.1991 88.0484 74.276C87.6651 74.3997 87.2602 74.5206 86.8634 74.5261C86.3905 74.5344 85.8605 74.5344 85.4555 74.331C84.9962 74.1029 84.6456 73.6521 84.2542 73.2893C84.1237 73.1684 83.9878 73.042 83.8927 72.8935C83.6698 72.5527 83.4687 72.1982 83.2649 71.8436C83.0773 71.5193 82.7947 71.2088 82.7376 70.8624C82.6207 70.1259 82.175 69.4717 82.2402 68.6939C82.2593 68.4576 82.1804 68.213 82.1342 67.8749C81.9603 68.1635 81.8081 68.1772 81.6178 67.9848C81.5716 67.9409 81.3922 67.9876 81.3026 68.0398C80.6802 68.4026 80.0415 68.7489 79.449 69.1557C78.1009 70.0791 76.9729 71.2555 75.8885 72.473C75.807 72.5637 75.6521 72.6242 75.527 72.6297C75.3232 72.6379 75.1166 72.5885 74.9291 72.5665C74.8802 72.4648 74.8231 72.3466 74.766 72.2257C74.7062 72.1047 74.6437 71.9866 74.5866 71.8656C74.4372 71.5523 74.497 71.1703 74.7307 70.9449C75.046 70.6398 75.3911 70.343 75.6249 69.9775C76.5381 68.562 77.4241 67.1246 78.302 65.6844C78.6635 65.0935 78.9706 64.4696 79.3049 63.8622C79.6691 63.2053 80.0523 62.5594 80.3948 61.8943C80.6095 61.4765 80.7617 61.0258 80.9465 60.5888C81.2917 59.778 81.7048 58.9865 81.9657 58.1509C82.262 57.211 82.512 56.2353 82.6071 55.2568C82.6642 54.6522 83.1725 54.7374 83.4035 54.4296C83.4116 54.5532 83.4198 54.6467 83.4334 54.7594ZM51.0198 83.3953C51.1774 83.8983 51.3133 84.349 51.4574 84.797C51.7944 85.8387 52.4086 86.2839 53.4931 86.3087C54.3628 86.3306 55.17 86.0805 55.9609 85.7672C57.1323 85.3055 58.1135 84.5194 59.1463 83.8241C59.3583 83.6812 59.5268 83.4723 59.7198 83.2991C59.9263 83.115 60.3367 83.1342 60.2878 82.7C60.2851 82.6807 60.3585 82.6587 60.3911 82.6285C61.0135 82.0568 61.5978 81.4494 62.1169 80.7816C62.4594 80.3418 62.8182 79.9185 63.1606 79.4788C63.5629 78.9676 64.12 78.5718 64.313 77.9012C64.332 77.8325 64.438 77.7885 64.5033 77.7363C64.5576 77.6923 64.6283 77.6593 64.6636 77.6044C64.9191 77.2086 65.161 76.8046 65.4219 76.4143C65.8377 75.7986 66.2726 75.1967 66.6857 74.5811C66.9032 74.2568 67.1016 73.9187 67.2972 73.5779C67.4848 73.2563 67.6506 72.921 67.8435 72.6022C68.0555 72.2559 68.3002 71.9316 68.5094 71.5825C69.0748 70.6343 69.6374 69.6834 70.1864 68.7269C70.4364 68.2927 70.6511 67.8392 70.893 67.3994C71.0996 67.0201 71.3388 66.6573 71.5317 66.2753C71.7492 65.8438 71.9204 65.3903 72.1378 64.9588C72.3851 64.4723 72.6841 64.0106 72.9206 63.5186C73.4179 62.4797 73.8909 61.4271 74.3719 60.3799C74.6682 59.734 74.9835 59.0936 75.258 58.4368C75.5596 57.7167 75.8233 56.9801 76.1032 56.249C76.5245 55.1469 76.9458 54.0448 77.3698 52.9426C77.4703 52.6788 77.5872 52.4204 77.6714 52.1511C77.8481 51.5877 78.0438 51.0242 78.158 50.4471C78.2313 50.0788 78.5575 49.7242 78.2857 49.3037C78.2612 49.2652 78.34 49.1526 78.3808 49.0811C78.4895 48.886 78.6499 48.7101 78.7042 48.5012C78.9217 47.6382 79.1717 46.7834 79.3131 45.9012C79.3837 45.4614 79.5087 45.0326 79.574 44.5929C79.6582 44.0102 79.7099 43.4221 79.7669 42.8339C79.786 42.6443 79.7724 42.4519 79.7805 42.2622C79.7832 42.2128 79.7968 42.1331 79.824 42.1221C80.0523 42.0396 79.9545 41.8994 79.911 41.751C79.8702 41.6191 79.8458 41.4789 79.843 41.3415C79.8349 41.0392 79.824 40.7341 79.8539 40.4345C79.8811 40.1569 79.9844 39.9096 79.9056 39.6017C79.8104 39.228 79.8757 38.8157 79.8186 38.4282C79.7615 38.0269 79.7126 37.6009 79.5359 37.2463C79.1364 36.4355 78.3183 36.2486 77.5356 36.092C77.1605 36.0178 76.7555 36.0727 76.3696 36.1112C75.9347 36.1552 75.4808 36.1772 75.0813 36.3339C74.3746 36.6114 73.6925 36.9522 73.0266 37.3233C72.6868 37.5129 72.4096 37.818 72.1025 38.0681C71.5915 38.4886 71.0806 38.9091 70.5669 39.3269C70.1184 39.6924 69.6645 40.047 69.2242 40.418C69.0095 40.5967 68.8111 40.8001 68.6154 40.9979C68.0256 41.5971 67.4087 42.1715 66.8597 42.8064C66.1856 43.5842 65.5442 44.395 64.9354 45.2278C64.3565 46.0138 63.8238 46.8356 63.2965 47.6574C63.1389 47.8993 63.0193 48.1851 62.9595 48.4654C62.8888 48.7925 62.9051 49.1388 62.8807 49.4769C62.8426 49.4549 62.8073 49.4329 62.7692 49.4109C62.6034 49.5291 62.4377 49.6473 62.261 49.771C62.242 49.7242 62.2094 49.6418 62.174 49.5483C61.6332 50.1915 59.467 54.2234 59.1354 55.4685C59.2278 55.6169 59.2985 55.7268 59.3692 55.8368C59.3393 55.856 59.3094 55.878 59.2795 55.8972C59.1843 55.8148 59.0892 55.7323 58.9751 55.6334C58.9234 55.779 58.8609 55.9082 58.831 56.0429C58.7087 56.6256 58.5538 57.1917 58.2141 57.6947C58.1379 57.8074 58.0428 57.9503 58.051 58.0712C58.0727 58.3955 57.9232 58.6402 57.7901 58.9068C57.6895 59.1046 57.6514 59.3355 57.5917 59.5526C57.5101 59.855 57.4775 60.1793 57.3443 60.4569C57.1215 60.9241 57.1459 61.3144 57.4014 61.7789C57.7982 62.5017 58.0917 63.285 58.4587 64.0243C58.7087 64.5301 58.7658 65.1539 59.2632 65.4508C59.2632 65.6212 59.2305 65.7559 59.2713 65.8603C59.3121 65.9675 59.4235 66.0444 59.554 66.1929C59.3719 66.1929 59.2795 66.1929 59.1735 66.1929C59.1871 66.2698 59.1979 66.3413 59.2197 66.4622C59.043 66.4622 58.8799 66.4622 58.7277 66.4622C58.6788 66.4924 58.5837 66.5831 58.5538 66.5639C58.2412 66.3605 57.9015 66.1599 57.733 65.8136C57.3552 65.0413 57.0182 64.247 56.6594 63.4664C56.5942 63.3262 56.5072 63.1971 56.4175 63.0404C56.3469 63.1696 56.3034 63.2493 56.2082 63.4197C56.1702 63.2053 56.1485 63.0899 56.1267 62.9744C56.0452 63.0019 55.9718 63.0239 55.8848 63.0541C55.8767 62.9112 55.8685 62.8013 55.8549 62.6144C55.7544 62.7875 55.7027 62.8782 55.6321 62.9964C55.5532 62.8315 55.4799 62.7243 55.4554 62.6061C55.4282 62.4907 55.45 62.3643 55.45 62.2461C55.2543 62.2269 55.0694 62.2131 54.8846 62.1829C54.8411 62.1774 54.8058 62.1224 54.7678 62.0894C54.8058 62.0455 54.8384 62.0015 54.8792 61.963C54.958 61.8916 55.0694 61.8393 55.1129 61.7541C55.2896 61.4078 55.1918 61.1935 54.9662 60.8471C54.5585 60.2178 53.6888 59.9951 53.5366 59.1541C53.2457 58.9865 53.3871 58.7144 53.3572 58.4148C53.523 58.4945 53.6507 58.555 53.7757 58.6154C53.8083 58.511 53.841 58.4038 53.86 58.3406C54.0312 58.3846 54.1617 58.4148 54.2894 58.4478C54.4117 58.4807 54.5585 58.4835 54.6509 58.5577C54.9254 58.7803 55.1754 59.0304 55.4962 59.3245C55.7788 58.6154 56.0425 57.9503 56.2816 57.3539C55.9337 57.0048 55.5396 56.752 55.3548 56.3892C55.1591 56.0072 55.1591 55.5179 55.0749 55.0864C55.6402 54.9105 55.6592 54.7649 55.1972 54.2674C55.3249 54.2152 55.4336 54.1684 55.5451 54.1245C55.5777 54.2234 55.613 54.3196 55.6429 54.4213C55.6592 54.4708 55.6484 54.545 55.6783 54.5752C55.9174 54.7923 55.8169 54.9463 55.6674 55.0232C55.8141 55.5372 56.0098 56.0099 56.0669 56.4991C56.0968 56.7547 56.0778 56.9471 56.3577 57.0653C56.4202 56.8427 56.4692 56.6228 56.5398 56.4057C56.7382 55.79 56.9665 55.1854 57.1378 54.5642C57.2628 54.108 57.3199 53.6325 57.4123 53.168C57.4286 53.0856 57.4775 53.0059 57.5074 52.9262C57.5835 52.7338 57.6895 52.5469 57.733 52.349C57.9069 51.5382 58.0564 50.7192 58.2304 49.9084C58.2684 49.7297 58.4043 49.5703 58.4288 49.3944C58.4777 49.0316 58.4804 48.6633 58.5076 48.2978C58.5103 48.2566 58.5348 48.2153 58.5456 48.1741C58.6842 47.6657 58.8555 47.1627 58.9533 46.646C59.043 46.165 59.2197 45.684 59.0892 45.1756C59.0729 45.1096 59.1028 45.0272 59.1218 44.9529C59.1735 44.7496 59.2686 44.5489 59.2767 44.3455C59.2985 43.598 59.2958 42.8504 59.2795 42.1028C59.2795 42.0396 59.0783 41.9049 59.0321 41.9269C58.7277 42.0781 58.426 42.2457 58.1515 42.4464C57.9558 42.5893 57.8716 42.8944 57.5373 42.8257C57.4911 42.8174 57.4177 42.9081 57.3661 42.9631C57.1785 43.1637 57.0698 43.4193 56.8904 43.6364C56.5425 44.057 56.2735 44.5434 55.9745 45.0052C55.4853 45.7582 55.0015 46.5168 54.5123 47.2699C54.3655 47.4952 54.1889 47.7041 54.0421 47.9323C53.9823 48.0257 54.004 48.1906 53.9307 48.2511C53.6561 48.4737 53.6398 48.7568 53.6833 49.0674C53.686 49.0921 53.6643 49.1223 53.6507 49.1608C53.5692 49.1251 53.4931 49.0948 53.4197 49.0646C53.2593 49.2488 53.4278 49.6335 53.1262 49.6115C53.0365 49.7737 52.9767 49.8809 52.9142 49.9853C52.868 50.0678 52.8136 50.1447 52.7674 50.2272C52.6424 50.4553 52.5255 50.6834 52.3978 50.9116C52.3108 51.0682 52.1396 51.2194 52.1423 51.3705C52.145 51.6371 52.0336 51.7691 51.8324 51.8872C51.6177 52.0137 51.4057 52.5056 51.4329 52.6541C51.2889 52.8794 51.172 53.0471 51.0741 53.2257C50.9084 53.5226 50.7643 53.8331 50.5931 54.1272C50.4844 54.3196 50.3294 54.4873 50.2262 54.6824C50.131 54.8611 50.1039 55.0782 50.006 55.2541C49.6337 55.922 49.2477 56.5788 48.8645 57.2385C48.4949 57.8761 48.1035 58.5 47.8725 59.2063C47.8534 59.2668 47.81 59.3218 47.7801 59.3795C47.5545 59.7863 47.3262 60.1875 47.1087 60.5998C47.0517 60.7097 47.0544 60.8554 46.9973 60.9681C46.856 61.2374 46.6929 61.4985 46.5407 61.7596C46.6413 61.8228 46.7065 61.8613 46.7799 61.908C46.6576 62.051 46.6467 62.2901 46.3831 62.2076C46.3586 62.1994 46.2879 62.2901 46.2608 62.345C46.0325 62.8013 45.7987 63.2548 45.584 63.7193C45.3394 64.247 45.0921 64.7747 44.8801 65.3134C44.7523 65.6377 44.6898 65.9895 44.6001 66.322C44.5648 66.3385 44.4615 66.3523 44.437 66.4045C44.2903 66.7151 44.1517 67.0311 44.0321 67.3527C43.8282 67.8996 43.6407 68.4521 43.4423 68.999C43.1162 69.9005 42.7764 70.7965 42.4639 71.7035C42.3089 72.1487 42.2029 72.6132 42.0698 73.0832C42.1459 73.0887 42.2165 73.0914 42.2899 73.0969C42.2953 73.1162 42.3035 73.1382 42.3089 73.1574C42.2301 73.2069 42.1513 73.2563 42.0643 73.3086C42.1024 73.38 42.1377 73.4487 42.2138 73.5916C42.0834 73.5092 42.0263 73.4735 41.9828 73.446C41.8985 73.7126 41.8143 73.9572 41.7491 74.2073C41.5833 74.8367 41.3821 75.4606 41.2843 76.101C41.2028 76.6204 40.8386 77.1206 41.1131 77.6483C41.0152 77.7143 40.8685 77.7583 40.8386 77.8435C40.7706 78.0414 40.7625 78.2585 40.7217 78.5223C40.8277 78.3987 40.9038 78.3135 41.0179 78.1788C41.0179 78.2832 41.0342 78.3327 41.0152 78.3629C40.9147 78.5223 40.7733 78.6653 40.7081 78.8357C40.6266 79.0555 40.5939 79.2947 40.5668 79.531C40.5532 79.6492 40.6048 79.7756 40.6293 79.9268C40.1917 80.2566 40.4961 80.8365 40.3059 81.2323C40.4037 81.29 40.4716 81.3285 40.5396 81.367C40.4961 81.4274 40.4553 81.4907 40.4091 81.5484C40.382 81.5814 40.314 81.5978 40.3113 81.6253C40.2461 82.3097 40.189 82.9968 40.1292 83.6839C40.1645 83.6866 40.1999 83.6894 40.2325 83.6921C40.2651 83.2579 40.3004 82.8264 40.333 82.3921C40.4146 82.4251 40.439 82.4554 40.439 82.4828C40.42 83.1287 40.401 83.7773 40.3792 84.4232C40.3765 84.4892 40.3901 84.5689 40.3575 84.6184C40.1401 84.9482 40.0667 85.267 40.3548 85.5996C40.382 85.6325 40.3684 85.704 40.3711 85.759C40.382 86.0448 40.3493 86.3416 40.4118 86.6165C40.5233 87.1085 40.6809 87.5922 40.8467 88.0704C40.9201 88.2875 41.056 88.4799 41.3495 88.4112C41.6023 88.3507 41.8714 88.3233 41.9067 88.0154C42.0127 88.0017 42.1214 88.0182 42.173 87.9715C42.5372 87.6389 42.9368 87.3311 43.2303 86.9435C43.5592 86.512 43.7875 86.0036 44.0565 85.5254C44.2658 85.1516 44.4996 84.786 44.6708 84.393C44.948 83.7609 45.1845 83.115 45.4318 82.4691C45.6655 81.8562 45.8938 81.2405 46.1113 80.6194C46.1928 80.3858 46.2281 80.1329 46.3124 79.8993C46.6114 79.0858 46.9022 78.2695 47.2392 77.4724C47.3996 77.0932 47.598 76.7578 47.6523 76.3181C47.7094 75.8454 47.954 75.3919 48.1279 74.9329C48.1769 74.801 48.2475 74.5783 48.3182 74.5728C48.7449 74.5454 48.5791 74.1798 48.6661 73.9572C48.6063 74.0094 48.5492 74.0589 48.4378 74.1578C48.522 73.9517 48.5791 73.8115 48.6389 73.6659C48.6471 73.6796 48.6634 73.7043 48.6797 73.7263C48.7041 73.7593 48.7286 73.7895 48.7503 73.8225C48.783 73.8033 48.8156 73.7868 48.8482 73.7675C48.7938 73.6604 48.7368 73.5504 48.6797 73.4377C48.7667 73.2289 48.8618 73.0062 48.9542 72.7919C49.0249 72.7726 49.1118 72.7589 49.1879 72.7259C49.2042 72.7204 49.1852 72.6352 49.1825 72.5885C49.1743 72.4785 49.1254 72.3549 49.1607 72.2614C49.3809 71.6622 49.6228 71.0713 49.8511 70.4749C49.9218 70.2935 49.9734 70.1039 50.0278 69.9417C50.1419 69.9417 50.2289 69.9417 50.3131 69.9417C50.2615 69.8758 50.2099 69.8098 50.1392 69.7246C50.4191 69.0128 50.7235 68.2844 50.9926 67.5451C51.3405 66.5886 51.6558 65.6212 52.0009 64.6647C52.0716 64.4668 52.2129 64.2909 52.3543 64.0491C52.0526 63.6918 51.6721 63.2795 51.3378 62.8315C51.153 62.5869 50.998 62.2983 50.9138 62.0042C50.8703 61.8558 50.9654 61.6085 51.0823 61.4793C51.2997 61.2374 52.0906 61.2539 52.2374 61.6964C52.2673 61.7844 52.338 61.8586 52.3923 61.9383C52.9413 62.7298 53.4985 63.5186 54.0421 64.3157C54.2677 64.6455 54.4253 65.033 54.6889 65.3244C54.9553 65.6157 54.659 66.1874 55.2081 66.3C55.2162 66.3028 55.2162 66.3413 55.2216 66.3605C55.3276 66.6601 55.4228 66.9624 55.5396 67.2565C55.7326 67.7375 55.9392 68.213 56.1376 68.6912C56.1539 68.7297 56.1648 68.7736 56.1648 68.8149C56.1756 69.0347 56.1811 69.2546 56.1919 69.5295C55.806 69.6339 56.3469 69.9225 56.1457 70.1781C56.018 70.0214 55.9011 69.8785 55.7571 69.7054C55.7924 69.895 55.8196 70.0324 55.8604 70.2441C55.7516 70.1698 55.6946 70.1506 55.6728 70.1094C55.4554 69.7383 55.2271 69.37 55.0314 68.9853C54.6835 68.2899 54.3655 67.5808 54.0176 66.8882C53.8573 66.5666 53.6534 66.2671 53.4686 65.9565C53.436 65.9647 53.4034 65.973 53.368 65.9785C52.4711 69.3755 51.9031 72.8413 51.2834 76.2604C51.3867 76.3126 51.4601 76.3511 51.5335 76.3868C51.5226 76.4115 51.5117 76.4363 51.5036 76.461C51.4166 76.4555 51.3323 76.45 51.2291 76.4445C51.2209 76.5682 51.2155 76.6644 51.2128 76.7166C51.3133 76.7743 51.3867 76.8156 51.4574 76.8568C51.365 76.9255 51.2753 76.997 51.1584 77.0849C50.9138 79.2452 50.4219 81.4384 50.8486 83.7554C50.9138 83.6124 50.9546 83.53 51.0198 83.3953ZM110.061 52.1648C110.18 52.4122 110.153 52.5716 110.096 52.797C109.957 53.3357 109.995 53.9211 109.971 54.49C109.949 54.96 109.922 55.4327 109.927 55.9055C109.936 56.6613 109.96 57.4171 109.998 58.1702C110.02 58.6154 110.039 59.0689 110.137 59.5004C110.286 60.149 110.449 60.8059 110.707 61.4161C110.89 61.8476 111.164 62.3231 111.534 62.5622C111.844 62.7601 112.363 62.7188 112.768 62.6474C113.175 62.5759 113.569 62.3643 113.942 62.1636C114.521 61.8558 115.089 61.5233 115.64 61.166C115.991 60.9406 116.298 60.6493 116.627 60.3882C117.244 59.8962 117.869 59.4152 118.47 58.904C118.75 58.6676 118.978 58.3708 119.233 58.107C119.731 57.593 120.28 57.123 120.715 56.5596C121.052 56.1226 121.489 55.7818 121.775 55.2843C122.074 54.7621 122.522 54.3306 122.862 53.8276C123.71 52.5744 124.563 51.3211 125.351 50.0293C125.887 49.1526 126.354 48.2291 126.773 47.2891C127.11 46.5333 127.344 45.728 127.596 44.9365C127.713 44.5682 127.776 44.1806 127.838 43.7986C127.898 43.4413 127.982 43.0758 127.958 42.7212C127.912 42.0561 127.817 41.391 127.7 40.7341C127.577 40.0497 127.368 39.3791 126.941 38.8212C126.694 38.4996 126.36 38.2468 126.069 37.9609C125.887 37.7823 125.732 37.5569 125.52 37.4277C124.876 37.0292 124.229 36.6197 123.544 36.3036C122.93 36.0178 122.275 35.8034 121.617 35.6412C120.967 35.4818 120.293 35.4159 119.625 35.3307C119.046 35.2565 118.467 35.3609 117.877 35.2482C117.41 35.1575 116.893 35.3252 116.396 35.3746C116.119 35.4021 115.79 35.5341 115.572 35.4324C115.197 35.2537 114.977 35.5808 114.673 35.578C114.51 35.578 114.352 35.6825 114.186 35.7155C113.784 35.7979 113.379 35.8639 112.977 35.9408C112.721 35.9903 112.466 36.0453 112.213 36.0975C112.189 36.059 112.164 36.0205 112.14 35.9821C112.224 35.9518 112.306 35.9243 112.39 35.8941C112.36 35.8446 112.33 35.7924 112.303 35.7429C111.939 36.3751 111.316 36.2816 110.773 36.4136C110.854 36.3174 110.947 36.2157 111.053 36.1937C111.218 36.1607 111.398 36.1909 111.566 36.1744C111.607 36.1717 111.64 36.081 111.691 36.0068C111.395 36.0508 111.161 36.0782 110.933 36.125C110.811 36.1497 110.601 36.1992 110.596 36.2569C110.555 36.5757 110.297 36.5537 110.085 36.6637C110.085 36.5345 110.085 36.4328 110.085 36.3119C109.832 36.3971 109.599 36.4713 109.37 36.5592C109.289 36.5922 109.185 36.7296 109.161 36.7131C108.821 36.4878 108.829 36.7901 108.775 36.9797C108.419 36.7846 108.356 36.8148 108.359 37.1886C108.289 37.1364 108.234 37.0924 108.177 37.0512C107.99 37.1749 107.862 37.4937 107.59 37.2793C107.277 37.403 106.981 37.5184 106.704 37.6284C106.69 37.6668 106.688 37.7493 106.65 37.774C106.231 38.0461 105.712 38.0874 105.288 38.3567C105.234 38.3924 105.122 38.332 105.035 38.3155C104.875 38.5738 103.603 39.1675 103.356 39.1098C103.165 39.0905 103.391 39.7007 102.978 39.3516C102.97 39.3461 102.926 39.3846 102.899 39.4011C102.777 39.4643 102.654 39.5275 102.614 39.5468C102.709 40.3246 102.866 41.0529 102.872 41.7812C102.88 42.5481 102.706 43.3176 102.679 44.0872C102.643 45.1453 102.529 46.1815 102.277 47.2094C102.094 47.9515 101.972 48.7073 101.817 49.4576C101.755 49.7627 101.681 50.065 101.616 50.3674C101.529 50.7796 101.461 51.1974 101.35 51.6042C101.198 52.1648 101.018 52.7173 100.844 53.2725C100.518 54.3224 100.203 55.3778 99.8549 56.4194C99.594 57.2027 99.2896 57.9695 99.0042 58.7446C98.833 59.2091 98.6617 59.6708 98.4878 60.1353C98.4688 60.1848 98.4443 60.2645 98.409 60.2727C98.178 60.3167 98.1888 60.4569 98.2079 60.6493C98.2187 60.751 98.1127 60.8636 98.0584 60.9708C98.0312 60.9571 98.004 60.9433 97.9768 60.9296C97.966 61.0505 97.9877 61.1852 97.9388 61.2869C97.7893 61.6112 97.6154 61.9245 97.4414 62.2351C97.387 62.3313 97.2919 62.4055 97.2267 62.4962C97.1696 62.5732 97.1261 62.6611 97.0745 62.7463C97.0881 62.7546 97.1017 62.7656 97.1153 62.7738C96.6614 63.4856 96.2048 64.2002 95.7482 64.9203C95.8188 64.9396 95.8759 64.9561 95.9547 64.978C95.9167 65.0413 95.9004 65.1045 95.8596 65.1265C95.4573 65.3436 95.3432 65.8026 95.0469 66.1104C94.9491 66.2121 94.9708 66.4237 94.8839 66.5502C94.4816 67.1328 94.0631 67.7045 93.6092 68.3339C95.6367 69.414 97.8219 70.0132 99.6511 71.3434C99.5614 71.3984 99.507 71.4314 99.4472 71.4671C99.526 71.566 99.6049 71.6348 99.6456 71.72C100.056 72.5885 100.51 73.4405 100.85 74.3337C101.032 74.8175 101.032 75.3754 101.083 75.9003C101.116 76.2219 101.078 76.549 101.092 76.8733C101.105 77.2361 101.154 77.5989 101.159 77.9644C101.165 78.3245 101.138 78.6845 101.119 79.0445C101.102 79.3194 101.092 79.5942 101.043 79.8636C100.972 80.2484 100.877 80.6304 100.782 81.0097C100.695 81.367 100.597 81.7188 100.502 82.0733C100.385 82.5158 100.273 82.9611 100.143 83.3981C100.015 83.8186 99.8603 84.2336 99.7299 84.6541C99.7136 84.7036 99.7625 84.775 99.7842 84.8355C99.9337 85.2423 100.186 85.5913 100.265 86.0503C100.36 86.6055 100.861 86.9738 101.176 87.4273C101.195 87.452 101.225 87.4685 101.252 87.4877C101.355 87.5702 101.458 87.6526 101.616 87.7791C102.048 87.6526 101.858 88.2353 102.1 88.403C102.094 88.3233 102.092 88.2628 102.084 88.1501C102.192 88.2298 102.271 88.2738 102.328 88.3343C102.866 88.9004 103.519 89.1643 104.296 89.0846C104.361 89.0791 104.429 89.0708 104.492 89.0846C105.011 89.2055 105.481 88.9691 105.919 88.796C106.541 88.5459 107.114 88.1556 107.688 87.7928C108.18 87.485 108.669 87.1634 109.115 86.7924C110.15 85.9294 111.047 84.9262 111.879 83.8598C112.387 83.2057 112.917 82.568 113.404 81.8974C114.007 81.0674 114.591 80.2181 115.157 79.3606C115.496 78.8439 115.784 78.2942 116.1 77.761C116.543 77.0162 117.024 76.2934 117.429 75.5293C117.904 74.6306 118.331 73.7016 118.747 72.7754C119.133 71.9179 119.486 71.0466 119.837 70.1726C120.084 69.5569 120.318 68.933 120.533 68.3064C120.739 67.7045 121.008 67.1246 121.068 66.4759C121.098 66.1599 121.188 65.8493 121.245 65.536C121.291 65.2831 121.351 65.0303 121.362 64.7747C121.381 64.3157 121.408 63.8484 121.356 63.3922C121.326 63.1338 121.174 62.8727 121.025 62.6501C120.943 62.5319 120.753 62.4852 120.606 62.4138C120.342 62.2846 120.076 62.0647 119.807 62.0565C119.187 62.0372 118.559 62.0894 117.942 62.1801C117.366 62.2653 116.85 62.5072 116.366 62.881C115.852 63.2768 115.257 63.5763 114.676 63.8704C114.254 64.0848 113.76 64.1618 113.366 64.4119C112.743 64.8076 112.17 65.2859 111.591 65.7504C111.167 66.0912 110.762 66.454 110.365 66.825C110.196 66.9844 109.982 67.1768 109.949 67.3829C109.9 67.6825 109.762 67.8776 109.449 67.8144C109.438 67.9299 109.425 68.0426 109.408 68.1965C109.297 68.114 109.215 68.0535 109.104 67.9711C109.134 68.1113 109.156 68.2212 109.18 68.3449C108.976 68.3916 108.791 68.4356 108.607 68.4768C108.636 68.507 108.664 68.5373 108.693 68.5648C108.607 68.6994 108.544 68.9193 108.43 68.9495C108.172 69.0182 107.9 69.2849 107.919 69.5624C107.761 69.6312 107.576 69.6669 107.454 69.7741C107.166 70.0269 106.911 70.3155 106.639 70.5876C106.484 70.7388 106.291 70.8625 106.277 71.1126C106.372 71.0384 106.47 70.9614 106.565 70.8872C106.582 70.9037 106.598 70.9229 106.614 70.9394C106.4 71.1868 106.182 71.4314 105.967 71.6787C105.946 71.6677 105.927 71.654 105.905 71.643C105.908 71.566 105.913 71.4918 105.916 71.3929C105.687 71.5963 105.475 71.7832 105.25 71.9838C105.198 71.7777 105.158 71.6183 105.122 71.4699C104.924 71.5606 104.788 71.6238 104.652 71.687C104.633 71.6595 104.614 71.6348 104.595 71.6073C104.641 71.5056 104.687 71.4039 104.734 71.3022C104.701 71.3104 104.666 71.3187 104.633 71.3242C104.581 71.184 104.483 71.0411 104.486 70.9037C104.492 70.5436 104.532 70.1836 104.579 69.8263C104.668 69.1282 104.812 68.4328 104.859 67.732C104.902 67.0586 105.09 66.41 105.155 65.7394C105.25 64.7939 105.527 63.8649 105.717 62.9277C105.826 62.3945 105.905 61.8531 106.025 61.3199C106.128 60.8609 106.277 60.4129 106.394 59.9567C106.709 58.7226 107.008 57.4858 107.337 56.2545C107.552 55.4602 107.829 54.6824 108.041 53.8881C108.155 53.4566 108.196 53.0059 108.261 52.5606C108.31 52.2281 108.318 51.8872 108.4 51.5657C108.517 51.1012 108.74 50.6614 108.816 50.1942C108.922 49.5373 109.175 48.9492 109.471 48.372C109.506 48.3033 109.604 48.2648 109.683 48.2236C109.851 48.1356 110.023 47.9515 110.199 48.2126C110.599 47.9872 110.849 48.3198 110.922 48.5589C111.025 48.897 110.979 49.2982 110.925 49.6638C110.857 50.1145 110.716 50.5515 110.607 50.9968C110.501 51.4338 110.398 51.868 110.286 52.3325C110.224 52.2748 110.169 52.239 110.061 52.1648ZM126.444 71.9591C126.314 72.0058 126.251 72.014 126.202 72.047C125.928 72.2284 125.659 72.4208 125.381 72.6022C125.123 72.7726 124.835 72.91 124.601 73.1079C124.433 73.2536 124.349 73.4954 124.191 73.6604C123.403 74.4684 123.264 75.3616 123.873 76.3456C123.995 76.5407 124.164 76.7798 124.359 76.843C124.762 76.9695 125.232 77.1151 125.471 76.538C125.474 76.5297 125.485 76.5215 125.493 76.5132C126.023 76.0213 126.539 75.5128 127.085 75.0373C127.89 74.3392 128.697 73.6384 129.54 72.987C130.249 72.4373 130.994 71.9343 131.749 71.4534C132.38 71.0493 133.057 70.7195 133.695 70.3293C134.032 70.1231 134.345 69.8675 134.652 69.6147C134.84 69.4608 134.812 69.2711 134.598 69.1694C134.272 69.0155 133.94 68.8561 133.592 68.7681C133.25 68.6829 132.913 68.5867 132.524 68.6665C132.192 68.7324 131.817 68.6197 131.469 68.5565C130.967 68.4658 130.456 68.3861 129.969 68.2294C129.627 68.1195 129.385 67.8749 129.263 67.4681C129.173 67.1658 129.067 66.8442 129.268 66.5941C129.404 66.4265 129.551 66.2561 129.722 66.1269C130.461 65.5662 131.206 65.0165 131.953 64.4723C132.494 64.0766 133.046 63.6945 133.589 63.3015C134.633 62.5457 135.682 61.8009 136.71 61.0258C137.117 60.718 137.413 60.3002 137.579 59.7972C137.639 59.6186 137.696 59.4729 137.408 59.4812C137.348 59.4839 137.253 59.3877 137.229 59.3163C137.104 58.9672 136.802 58.8765 136.503 58.8023C135.913 58.6566 135.315 58.5385 134.723 58.4065C134.342 58.3213 133.964 58.1702 133.579 58.1537C132.924 58.1234 132.423 57.7662 132.097 57.3044C131.755 56.8179 131.613 56.1611 131.923 55.5674C132.255 54.9298 132.513 54.2124 133.225 53.8826C133.176 53.8524 133.122 53.8194 133.027 53.7617C133.111 53.6957 133.165 53.6627 133.212 53.616C133.263 53.5638 133.304 53.5033 133.334 53.4676C133.396 53.5116 133.445 53.5446 133.494 53.5775C133.5 53.4786 133.502 53.3796 133.508 53.2807C133.81 53.3247 133.924 53.2532 133.935 52.9894C133.845 53.0581 133.763 53.124 133.665 53.2037C133.657 53.135 133.644 53.1048 133.652 53.0966C134.119 52.5524 134.587 52.0082 135.062 51.4722C135.101 51.4283 135.207 51.453 135.261 51.4145C135.402 51.3128 135.628 51.2111 135.647 51.082C135.701 50.7027 136 50.4773 136.242 50.3866C136.53 50.2767 136.601 50.1502 136.609 49.8974C136.609 49.8809 136.636 49.8671 136.663 49.8369C136.712 49.8781 136.764 49.9166 136.821 49.9633C137.24 49.4274 137.848 49.0838 138.115 48.5012C138.21 48.416 138.289 48.3638 138.343 48.2923C138.408 48.2071 138.444 48.0944 138.514 48.0175C139.362 47.116 140.142 46.1595 140.778 45.0876C141.235 44.3181 141.526 43.4935 141.596 42.603C141.64 42.0478 141.49 41.5476 141.18 41.0392C140.797 40.407 140.311 39.8958 139.792 39.4094C139.525 39.1592 139.175 38.9339 138.824 38.8514C138.017 38.6618 137.248 38.255 136.373 38.4034C135.872 38.4886 135.348 38.4446 134.861 38.5711C134.109 38.7662 133.383 39.0603 132.641 39.3049C132.442 39.3709 132.32 39.4588 132.347 39.6979C132.355 39.7721 132.277 39.8546 132.222 39.9645C131.937 39.665 131.679 39.6237 131.374 39.8656C131.092 40.0937 130.793 40.3081 130.477 40.484C130.097 40.6956 129.692 40.8605 129.273 41.0557C129.464 41.5037 129.265 42.0616 129.551 42.5343C129.507 42.6717 129.42 42.8367 129.415 43.0016C129.396 43.4441 129.426 43.8893 129.409 44.3345C129.401 44.5627 129.366 44.799 129.292 45.0162C129.072 45.6675 128.841 46.3134 128.588 46.9538C128.363 47.5255 128.113 48.0889 127.849 48.6413C127.518 49.3394 127.17 50.0266 126.814 50.7109C126.656 51.0105 126.458 51.2881 126.276 51.5739C126.137 51.7938 125.993 52.0082 125.854 52.2253C125.707 52.4589 125.572 52.698 125.417 52.9234C125.36 53.0059 125.24 53.0471 125.191 53.1295C124.925 53.5748 124.669 54.0255 124.4 54.4955C124.699 54.7923 124.792 55.3833 124.43 55.7625C124.093 56.1198 124.077 56.5816 123.865 56.9691C123.596 57.4693 123.596 58.085 123.218 58.5412C123.193 58.5714 123.158 58.6237 123.169 58.6457C123.327 58.981 123.397 59.319 123.212 59.6708C123.199 59.6956 123.24 59.7505 123.253 59.789C123.305 59.9429 123.324 60.1161 123.414 60.2425C123.566 60.4569 123.745 60.6548 123.938 60.8307C124.169 61.0395 124.427 61.2209 124.672 61.4133C124.656 61.4353 124.639 61.4601 124.62 61.482C124.699 61.4628 124.775 61.4408 124.854 61.4216C124.734 61.6717 124.887 61.7294 125.055 61.8283C125.637 62.1746 126.21 62.5319 126.765 62.9195C126.86 62.9854 126.871 63.2108 126.873 63.362C126.873 63.4114 126.721 63.4637 126.67 63.4939C126.705 63.5736 126.743 63.6588 126.781 63.7467C126.67 63.7275 126.558 63.7055 126.447 63.6863C126.322 63.8017 126.161 63.9144 126.015 63.8979C125.645 63.8594 125.289 63.799 124.949 64.0216C124.87 64.0711 124.743 64.0491 124.639 64.0518C124.569 64.0518 124.468 63.9969 124.43 64.0298C124.207 64.2057 123.995 64.3981 123.789 64.5905C123.715 64.6592 123.675 64.7664 123.598 64.8379C123.343 65.077 123.068 65.3024 123.142 65.7174C123.071 65.7036 123.014 65.6954 123.052 65.7009C122.653 66.2203 123.039 66.869 122.644 67.3719C122.631 67.3912 122.642 67.4324 122.644 67.4654C122.672 67.7897 122.737 68.1195 122.715 68.4411C122.693 68.7489 122.644 69.0375 122.962 69.2161C123.202 69.3508 123.443 69.4827 123.691 69.6009C123.976 69.7356 124.267 69.8565 124.558 69.983C124.694 70.0269 124.811 70.0984 124.936 70.1231C125.376 70.2111 125.824 70.2688 126.262 70.3677C126.338 70.3842 126.384 70.5354 126.441 70.6261C126.645 70.7223 126.863 70.8405 126.99 71.0246C127.037 71.0933 126.876 71.3077 126.795 71.4918C126.786 71.4808 126.825 71.5276 126.822 71.5248C126.713 71.687 126.588 71.8024 126.553 71.9371C126.49 72.1954 126.512 72.2009 126.227 72.1927C126.292 72.1377 126.341 72.08 126.444 71.9591ZM126.42 79.6355C126.333 79.5997 126.216 79.509 126.153 79.5393C125.879 79.6629 125.759 79.5118 125.631 79.3084C125.55 79.1792 125.463 79.0033 125.251 79.171C125.224 79.193 125.115 79.1133 125.044 79.0748C124.979 79.039 124.925 78.9841 124.857 78.9593C124.743 78.9181 124.615 78.9126 124.509 78.8604C124.3 78.756 124.112 78.6075 123.897 78.5141C123.215 78.2145 122.49 78.1458 121.788 78.3574C120.94 78.613 120.12 78.9346 119.326 79.3634C118.391 79.8691 117.72 80.6331 117.089 81.4247C116.475 82.197 115.956 83.0628 115.678 84.0412C115.488 84.7173 115.263 85.3879 115.146 86.0778C115.081 86.4681 115.178 86.8968 115.257 87.2953C115.295 87.4905 115.464 87.6609 115.57 87.8423C115.676 88.0209 115.741 88.2738 115.899 88.3645C116.236 88.5596 116.613 88.697 116.986 88.8125C117.287 88.9059 117.608 88.9389 117.921 88.9884C118.146 89.0241 118.375 89.0571 118.6 89.0571C118.796 89.0571 118.992 89.0076 119.187 88.9884C119.668 88.9444 120.152 88.9362 120.628 88.8565C121.079 88.7823 121.525 88.6476 121.965 88.5184C122.498 88.3645 123.03 88.2051 123.552 88.0154C124.022 87.845 124.463 87.5867 124.938 87.4438C125.746 87.1992 126.447 86.7649 127.137 86.3059C127.569 86.0173 128.015 85.7425 128.425 85.4237C128.836 85.1076 129.249 84.7778 129.589 84.3903C129.89 84.0467 130.072 83.6042 130.342 83.2304C130.679 82.7604 130.589 82.3454 130.257 81.9277C130.216 81.8754 130.222 81.7847 130.189 81.6253C130.342 81.7518 130.412 81.8095 130.48 81.8672C130.505 81.8479 130.526 81.8315 130.551 81.8122C130.301 81.4604 130.091 81.0646 129.79 80.7678C129.442 80.4243 129.099 80.0697 128.591 79.8911C128.265 79.7756 127.999 79.4431 127.651 79.2809C127.219 79.0803 126.806 78.8329 126.414 78.6185C126.42 78.9731 126.42 79.2947 126.42 79.6355ZM83.216 61.9575C83.2567 61.9603 83.2975 61.963 83.3383 61.9658C83.4225 60.9104 83.504 59.8522 83.5883 58.7968C83.5503 58.7941 83.5122 58.7913 83.4714 58.7886C83.4714 59.1239 83.4714 59.4592 83.4714 59.822C83.3491 59.7972 83.292 59.7863 83.2214 59.7698C83.2458 60.226 83.2785 60.6712 83.2893 61.1137C83.292 61.1825 83.1888 61.2512 83.1344 61.3226C83.1181 61.3446 83.1072 61.3721 83.0855 61.4133C83.1589 61.4133 83.2132 61.4133 83.2839 61.4133C83.2622 61.5975 83.2404 61.7789 83.216 61.9575ZM83.2431 62.3203C83.2268 62.3203 83.2105 62.3176 83.1969 62.3176C83.1969 63.1448 83.1969 63.9721 83.1969 64.8021C83.2132 64.8021 83.2295 64.8021 83.2431 64.8049C83.2431 63.9749 83.2431 63.1476 83.2431 62.3203ZM80.9275 43.5952C80.9655 43.6007 81.0036 43.6062 81.0389 43.6117C81.1041 42.8009 81.1667 41.9929 81.2319 41.1821C81.2047 41.1793 81.1775 41.1766 81.1504 41.1766C81.077 41.9819 81.0036 42.7899 80.9275 43.5952ZM70.257 39.3296C70.2299 39.2967 70.2 39.2609 70.1728 39.228C69.8575 39.5055 69.5422 39.7831 69.227 40.0607C69.246 40.0827 69.2623 40.1047 69.2813 40.1267C69.6075 39.8628 69.9309 39.5962 70.257 39.3296ZM110.283 66.5556C110.308 66.5859 110.332 66.6161 110.36 66.6463C110.642 66.3825 110.925 66.1159 111.21 65.852C111.189 65.8273 111.167 65.8053 111.142 65.7806C110.854 66.0362 110.569 66.2945 110.283 66.5556ZM46.8478 59.385C46.8179 59.3685 46.788 59.3493 46.7581 59.3328C46.5842 59.6928 46.4102 60.0556 46.2336 60.4156C46.258 60.4266 46.2852 60.4404 46.3097 60.4514C46.4891 60.0968 46.6684 59.7423 46.8478 59.385ZM81.096 39.0658C81.1205 39.0658 81.1449 39.0685 81.1694 39.0685C81.1694 38.7772 81.1694 38.4886 81.1694 38.1973C81.1449 38.1973 81.1205 38.1973 81.096 38.1945C81.096 38.4859 81.096 38.7745 81.096 39.0658Z" fill="#1D232A"/>
<path d="M54.3955 97.225C54.5966 97.0601 54.7434 96.9391 54.9173 96.7935C54.8276 96.8017 54.757 96.8072 54.6048 96.821C54.7108 96.6506 54.7842 96.5296 54.8603 96.4059C54.8929 96.4142 54.9282 96.4197 54.9608 96.4279C54.9771 96.7138 54.9934 96.9996 55.0097 97.2827C54.8249 97.2662 54.6646 97.2497 54.3955 97.225Z" fill="#1D232A"/>
<path d="M56.1669 91.9729C56.0256 91.7777 55.9087 91.6238 55.8027 91.4617C55.7837 91.4314 55.8054 91.327 55.8272 91.3215C55.8924 91.305 55.9739 91.2967 56.031 91.3242C56.0881 91.3517 56.1506 91.4232 56.1615 91.4809C56.1805 91.6046 56.1669 91.7365 56.1669 91.9729Z" fill="#1D232A"/>
<path d="M57.3371 91.5401C57.1741 91.4655 57.0083 91.3882 56.8452 91.3136C56.8642 91.2666 56.8805 91.2224 56.8996 91.1755C57.0681 91.2418 57.2339 91.3081 57.4024 91.3744C57.3779 91.4268 57.3562 91.4821 57.3371 91.5401Z" fill="#1D232A"/>
<path d="M99.8555 43.1001C99.9098 43.0616 99.9587 43.0314 100.008 42.9984C100.043 43.0039 100.076 43.0094 100.111 43.0149C100.048 43.757 100.043 44.51 99.9098 45.2384C99.7848 45.92 99.5184 46.5741 99.3146 47.2392C99.2657 47.2255 99.2167 47.2118 99.1678 47.2008C99.2167 46.9864 99.2684 46.772 99.3173 46.5576C99.3064 46.5521 99.2928 46.5494 99.282 46.5439C99.0781 46.9974 98.877 47.4509 98.665 47.9209C98.6052 47.8769 98.559 47.8411 98.434 47.7477C98.4449 47.9621 98.453 48.1105 98.4612 48.2809C98.4177 48.2479 98.3688 48.2122 98.3579 48.2039C98.1622 48.4458 97.9665 48.6904 97.7708 48.935C97.7355 48.913 97.6974 48.8883 97.6621 48.8663C97.7409 48.7179 97.8388 48.5777 97.8931 48.4211C97.9774 48.1792 98.0182 47.9181 98.1024 47.6762C98.2872 47.1513 98.5019 46.6401 98.6732 46.1124C98.7493 45.8788 98.7493 45.6204 98.7846 45.3731C98.8607 44.8399 98.9558 44.3094 99.0075 43.7735C99.0319 43.5289 98.9939 43.2705 98.945 43.0286C98.8879 42.751 99.0863 42.6384 99.2521 42.6026C99.3744 42.5751 99.5483 42.7071 99.6734 42.8005C99.7522 42.8582 99.7848 42.9792 99.8555 43.1001Z" fill="#1D232A"/>
<path d="M68.2339 74.8362C68.4024 74.5944 68.5709 74.3498 68.7421 74.1079C68.7829 74.1354 68.8237 74.1629 68.8644 74.1904C68.7068 74.4405 68.5492 74.6878 68.3888 74.9379C68.3372 74.9022 68.2855 74.8692 68.2339 74.8362Z" fill="#1D232A"/>
<path d="M77.9401 58.8374C78.1575 59.1012 78.2119 59.2716 78.0216 59.4118C77.9673 59.4503 77.8368 59.3843 77.7417 59.3678C77.7988 59.2167 77.8559 59.0655 77.9401 58.8374Z" fill="#1D232A"/>
<path d="M69.6099 72.7446C69.7131 72.5687 69.8164 72.3901 69.9197 72.2142C69.9523 72.2307 69.9849 72.2472 70.0175 72.2637C69.9251 72.4451 69.83 72.6237 69.7376 72.8051C69.6941 72.7858 69.6533 72.7639 69.6099 72.7446Z" fill="#1D232A"/>
<path d="M77.3587 46.162C77.3832 45.9724 77.4103 45.7827 77.4348 45.5931C77.4103 45.5876 77.3859 45.5794 77.3641 45.5739C77.2772 45.9449 77.1902 46.3159 77.1032 46.687C77.0597 46.6815 77.0162 46.6732 76.9727 46.6677C76.9727 46.5386 76.9537 46.4039 76.9755 46.2775C77.0516 45.8295 77.1684 45.3897 77.2201 44.939C77.3261 44.0567 77.3696 43.169 77.2337 42.2812C77.1494 41.737 77.0978 41.1874 77.0135 40.6432C76.9265 40.0687 76.5488 39.651 76.2144 39.214C76.0296 38.9749 76.1057 38.3812 76.3612 38.263C76.4509 38.2218 76.6031 38.2795 76.7118 38.3262C77.2146 38.5379 77.4919 38.9831 77.6495 39.4586C77.8832 40.1622 78.0844 40.8878 78.1849 41.6189C78.2746 42.2592 78.2447 42.9271 78.1931 43.5758C78.1578 44.021 78.0028 44.458 77.886 44.895C77.7827 45.277 77.6631 45.6563 77.5435 46.0356C77.5245 46.0988 77.4593 46.1455 77.4131 46.2005C77.3967 46.184 77.3777 46.173 77.3587 46.162Z" fill="#1D232A"/>
<path d="M54.6819 54.7614C54.8205 54.745 54.9483 54.8027 54.9347 55.0473C54.9048 55.509 54.9809 55.9598 55.0434 56.4133C55.076 56.6469 55.0488 56.8915 55.0189 57.1279C55.0108 57.1883 54.8885 57.2323 54.8205 57.2845C54.8015 57.2103 54.7743 57.1388 54.7689 57.0619C54.7363 56.6826 54.7091 56.3033 54.6819 55.924C54.6792 55.8938 54.6846 55.8608 54.6846 55.8278C54.6819 55.487 54.6819 55.1462 54.6819 54.7614Z" fill="#1D232A"/>
<path d="M53.7612 54.4098C53.908 54.2119 54.0575 54.0085 54.2124 53.7997C54.6065 53.9233 54.6608 54.0745 54.5059 54.7066C54.3537 54.7204 54.1961 54.7341 54.0466 54.7479C53.9488 54.6297 53.8564 54.5197 53.7612 54.4098Z" fill="#1D232A"/>
<path d="M58.231 58.6175C57.9565 59.5217 57.682 60.4232 57.4075 61.3275C57.2172 61.0774 57.3558 60.885 57.4618 60.6596C57.5624 60.4425 57.5651 60.1814 57.633 59.945C57.701 59.6976 57.7934 59.4585 57.8749 59.2139C57.9456 58.9995 58.0136 58.7824 58.0815 58.5653C58.1304 58.5845 58.1821 58.601 58.231 58.6175Z" fill="#1D232A"/>
<path d="M50.9617 81.2894C50.9617 81.927 50.9617 82.5619 50.9617 83.1995C50.7524 82.5729 50.8285 81.927 50.8231 81.2866C50.8693 81.2894 50.9155 81.2894 50.9617 81.2894Z" fill="#1D232A"/>
<path d="M59.0254 56.5425C58.8026 57.1279 58.5797 57.7133 58.3242 58.3839C58.259 58.241 58.1937 58.1668 58.2101 58.1255C58.4384 57.5814 58.6775 57.0399 58.914 56.4985C58.952 56.5122 58.9874 56.5287 59.0254 56.5425Z" fill="#1D232A"/>
<path d="M59.8247 54.4264C59.8872 54.0444 60.0829 53.7393 60.2704 53.4287C60.3085 53.4507 60.3493 53.4727 60.3873 53.4947C60.2297 53.8218 60.0748 54.1488 59.9171 54.4759C59.8872 54.4622 59.8546 54.4429 59.8247 54.4264Z" fill="#1D232A"/>
<path d="M53.2651 55.8371C53.4119 55.7736 53.556 55.7018 53.7109 55.6576C53.7299 55.652 53.7897 55.7929 53.8277 55.8675C53.662 55.9144 53.4962 55.9586 53.3304 56.0056C53.3086 55.9503 53.2869 55.8923 53.2651 55.8371Z" fill="#1D232A"/>
<path d="M124.942 46.1727C124.836 46.1012 124.76 46.0517 124.713 46.0215C124.863 45.8318 124.996 45.6614 125.132 45.491C125.105 45.4691 125.08 45.4471 125.053 45.4223C124.727 45.5103 124.659 45.8621 124.463 46.082C124.368 46.1891 124.406 46.398 124.153 46.3678C124.094 46.3595 124.007 46.5767 123.933 46.6921C123.825 46.8625 123.716 47.0329 123.607 47.2006C123.575 47.1978 123.539 47.1923 123.507 47.1896C123.498 47.1071 123.455 47.0054 123.488 46.9477C123.702 46.5904 123.977 46.2661 124.145 45.8923C124.39 45.3564 124.708 44.7902 124.721 44.2323C124.735 43.6468 124.996 43.0999 124.936 42.5557C124.852 41.7971 124.893 40.9424 124.162 40.4037C123.841 40.1673 123.887 39.7688 123.751 39.4527C123.702 39.3345 123.811 39.0624 123.931 38.98C124.145 38.8288 124.455 38.8756 124.629 39.046C125.042 39.4527 125.461 39.876 125.771 40.3597C125.969 40.6675 126.002 41.0935 126.07 41.4756C126.138 41.8521 126.197 42.2396 126.184 42.6189C126.17 42.9487 126.072 43.284 125.972 43.6029C125.754 44.2872 125.521 44.9688 125.273 45.645C125.213 45.8181 125.072 45.9693 124.942 46.1727Z" fill="#1D232A"/>
<path d="M104.062 85.5168C104.005 85.8357 103.959 86.0995 103.907 86.3826C103.415 86.5585 103.144 86.2672 103.203 85.5361C103.497 85.5003 103.782 85.0661 104.062 85.5168Z" fill="#1D232A"/>
<path d="M139.183 46.0984C139.082 46.1424 139.009 46.1754 138.911 46.2166C138.895 46.1397 138.865 46.0819 138.878 46.0407C139.112 45.3096 139.36 44.584 139.582 43.8502C139.642 43.6496 139.626 43.427 139.645 43.2153C139.68 42.825 139.726 42.4348 139.745 42.0445C139.764 41.6625 139.724 41.2749 139.764 40.8956C139.789 40.684 139.873 40.3982 140.025 40.3047C140.164 40.2195 140.428 40.2635 140.623 40.4614C141.017 40.8654 141.036 41.3656 141.083 41.8658C141.153 42.6217 141.053 43.3747 140.868 44.0976C140.786 44.4219 140.789 44.8479 140.4 45.0458C140.349 45.0733 140.333 45.175 140.303 45.2464C140.11 45.7082 139.732 45.9967 139.349 46.2716C139.148 46.42 139.137 46.2881 139.183 46.0984Z" fill="#1D232A"/>
<path d="M125.116 64.1513C125.393 63.9248 125.841 63.8861 126.11 64.0905C126.154 64.1237 126.17 64.1927 126.197 64.2452C126.157 64.2673 126.11 64.3115 126.072 64.306C125.746 64.259 125.423 64.201 125.116 64.1513Z" fill="#1D232A"/>
<path d="M220.457 60.0401C220.532 59.3059 220.517 58.5568 220.689 57.8526C221.033 56.4442 221.416 55.0283 221.917 53.6724C222.607 51.792 223.408 49.9566 224.172 48.0763C224.015 48.0838 223.775 48.1062 223.431 48.1287C223.633 46.9675 224.592 46.5031 224.952 46.0536C226.3 46.0012 227.379 45.9637 228.457 45.9113C229.401 45.8588 230.345 45.7839 231.282 45.709C232.173 45.6341 232.368 46.4132 232.69 46.8327C233.11 46.7803 233.432 46.7428 233.746 46.6979C233.784 47.005 233.919 47.3421 233.836 47.6118C233.522 48.713 233.065 48.8629 232.016 48.331C231.769 48.2036 231.454 48.1362 231.177 48.1587C230.285 48.2336 229.386 48.316 228.51 48.5033C228.098 48.5932 227.559 48.8479 227.394 49.185C226.502 51.0054 225.731 52.8783 224.884 54.7212C223.828 57.0135 223.371 59.3883 223.356 61.9354C223.341 63.6959 222.951 65.5613 222.27 67.1794C221.565 68.835 221.108 70.5206 220.674 72.2361C220.606 72.5133 220.457 72.7755 220.337 73.0602C221.58 73.4273 222.794 73.7869 224 74.1464C223.993 74.2363 223.985 74.3262 223.97 74.4236C223.745 74.4911 223.513 74.5585 223.251 74.6334C223.423 75.0904 223.603 75.5473 223.775 76.0043C222.33 76.9782 220.951 76.3339 219.618 75.9968C219.011 75.847 218.779 75.9744 218.629 76.4613C218.179 77.8922 217.692 79.3155 217.333 80.7689C216.951 82.2971 216.748 83.8703 216.374 85.3986C216.216 86.0428 215.834 86.6347 215.52 87.3388C215.093 86.9942 214.658 86.7245 214.598 87.8183C215.842 87.661 217.011 87.4737 218.187 87.3763C218.921 87.3164 219.715 87.2415 220.389 87.4587C220.831 87.6011 221.123 88.2453 221.416 88.7098C221.438 88.7397 220.936 89.1068 220.599 89.384C220.591 89.2641 220.577 89.3391 220.599 89.3765C221.423 90.5077 221.431 90.5602 220.09 90.7325C218.966 90.8748 217.82 90.8523 216.688 90.9198C215.864 90.9722 215.033 91.0621 214.209 91.0995C213.587 91.1295 212.935 91.2119 212.336 91.0846C211.849 90.9797 211.429 90.5976 210.958 90.3204C211.205 89.5488 211.452 88.6873 211.759 87.8558C212.081 87.0017 212.538 86.2002 212.808 85.3386C213.227 83.9677 213.527 82.5593 213.902 81.1734C214.658 78.3866 215.43 75.6148 216.711 73.0003C217.265 71.8616 217.513 70.5655 217.85 69.3295C218.419 67.2468 218.958 65.1492 219.505 63.0591C219.513 63.0292 219.52 62.9842 219.543 62.9767C221.101 62.3849 220.022 60.9765 220.449 60.0401H220.457Z" fill="#1D232A"/>
<path d="M204.229 46.0162C204.311 46.2784 204.386 46.5406 204.484 46.8627C204.686 46.8253 204.993 46.8552 205.061 46.7354C205.72 45.6791 206.799 45.7989 207.795 45.7615C209.788 45.6791 211.788 45.6191 213.788 45.6116C215.181 45.6116 216.29 46.9301 216.095 48.0988C216.05 48.3835 216.088 48.6756 216.088 49.1851C215.736 48.9453 215.534 48.803 215.301 48.6382C215.152 48.7356 214.957 48.8629 214.762 48.9903C214.754 48.9004 214.754 48.818 214.747 48.7281C211.938 48.3985 209.136 48.0389 206.252 48.9378C205.353 51.7621 204.476 54.7062 203.48 57.6129C202.903 59.306 202.057 60.9017 201.48 62.5947C200.955 64.1529 200.603 65.7636 200.236 67.3668C199.929 68.7002 199.712 70.0637 199.442 71.487C200.296 71.2998 200.978 71.06 201.674 71.0301C202.491 70.9926 203.315 71.09 204.124 71.2398C204.319 71.2773 204.484 71.7118 204.589 71.989C204.731 72.386 204.806 72.813 204.963 73.4423C204.349 73.5547 203.615 73.6596 202.896 73.8169C201.974 74.0117 201.068 74.2589 200.146 74.4312C199.884 74.4836 199.554 74.4462 199.315 74.3338C198.678 74.0266 198.446 74.3712 198.288 74.8881C197.914 76.0643 197.517 77.233 197.195 78.4241C197.007 79.0983 196.94 79.81 196.82 80.4992C196.535 82.1249 196.086 83.7355 196.011 85.3687C195.929 87.1516 195.067 88.6424 194.655 90.298C194.565 90.6651 194.31 90.9947 194.235 91.3618C193.996 92.478 192.857 91.9986 192.25 92.4855C192.168 92.5529 191.696 92.1409 191.276 91.8712C191.186 90.2606 192.003 88.7248 192.715 87.1216C193.164 86.1028 193.194 84.8967 193.411 83.773C193.696 82.2822 193.958 80.7839 194.28 79.3006C194.737 77.2255 195.262 75.1728 195.741 73.1052C196.221 71.0226 196.685 68.9325 197.165 66.8498C197.524 65.2841 197.824 63.696 198.288 62.1602C198.693 60.8342 199.292 59.5682 199.787 58.2647C199.989 57.7328 200.131 57.1709 200.304 56.6166C200.468 56.6915 200.588 56.7439 200.723 56.8113C200.746 56.7065 200.79 56.639 200.768 56.5941C200.356 55.7925 200.641 54.931 201.292 54.2792C202.064 53.5151 202.536 52.5487 202.768 51.4625C202.97 50.5185 203.323 49.6046 203.532 48.6607C203.69 47.9415 203.735 47.1998 203.847 46.4657C203.869 46.3084 203.967 46.1585 204.034 46.0087C204.094 46.0087 204.162 46.0162 204.229 46.0162Z" fill="#1D232A"/>
<path d="M262.604 45.9936C262.297 45.9037 261.952 45.8063 261.458 45.6639C261.668 45.4467 261.818 45.2894 261.885 45.222C262.409 45.2519 264.649 47.5668 264.717 48.0013C263.923 47.8964 263.72 48.1811 264.102 48.8928C264.215 49.11 264.222 49.3797 264.275 49.6269C264.207 49.6719 264.147 49.7168 264.08 49.7543C263.915 49.6119 263.698 49.4921 263.585 49.3123C263.099 48.5107 262.432 48.3609 261.578 48.6306C260.05 49.1175 258.851 49.9865 258.566 51.6271C258.424 52.4362 258.798 53.3277 258.731 54.1667C258.589 55.7999 259.765 56.9835 260.02 58.4668C260.409 60.7517 260.761 63.0366 261.203 65.3065C261.398 66.3028 261.877 67.2468 262.065 68.2431C262.289 69.4268 262.327 70.6479 262.454 71.854C262.679 74.0265 262.956 76.1915 263.114 78.364C263.241 80.1994 263.571 82.1772 262.731 83.8253C261.563 86.1252 260.379 88.5149 258.319 90.1855C257.944 90.4852 257.263 90.9421 256.394 90.6275C255.585 90.3353 254.581 90.4777 253.674 90.5826C252.678 90.7024 251.831 90.4852 251.015 89.9458C250.73 89.7585 250.408 89.6386 250.071 89.4663C249.906 88.2153 250.858 87.9381 251.846 87.5785C251.734 87.5335 251.599 87.5111 251.509 87.4361C251.367 87.3163 251.255 87.1665 251.135 87.0316C251.337 86.9642 251.577 86.7844 251.727 86.8443C252.85 87.3013 253.989 87.1365 255.128 86.9717C255.937 86.8593 256.761 86.7994 257.57 86.6645C257.787 86.6271 258.027 86.4173 258.147 86.2225C258.791 85.2262 258.986 84.05 259.383 82.9788C259.945 81.4655 260.139 79.9972 260.079 78.4539C260.042 77.5175 259.712 76.5886 259.697 75.6521C259.682 74.3636 259.203 73.0901 259.675 71.7641C259.862 71.2397 259.638 70.5355 259.51 69.9287C259.076 67.7936 258.581 65.6661 258.162 63.531C257.952 62.4597 257.967 61.336 257.675 60.2947C257.33 59.0886 256.873 57.8825 256.266 56.7887C255.45 55.3279 255.42 53.7697 255.675 52.2789C255.854 51.2376 255.592 49.8517 256.686 49.1774C257.87 48.4433 258.431 46.9375 259.982 46.6828C260.859 46.5779 261.69 46.2558 262.604 45.9936Z" fill="#1D232A"/>
<path d="M160.802 89.0694C161.386 88.9121 162.016 88.8372 162.548 88.5675C163.664 88.0056 164.668 88.4776 165.694 88.7847C166.855 89.1294 167.971 89.3391 169.133 88.6948C169.702 88.3802 170.384 88.2379 171.028 88.0806C171.208 88.0356 171.627 88.2079 171.627 88.2828C171.642 88.972 171.867 89.9909 171.507 90.2905C170.638 91.0247 169.56 91.5641 168.256 91.3618C167.372 91.227 166.443 91.3243 165.537 91.3094C165.185 91.3019 164.75 91.3918 164.488 91.2195C163.484 90.5677 162.608 91.0472 161.619 91.2794C160.757 91.4817 159.776 91.2045 158.854 91.1296C158.772 91.1221 158.69 91.0696 158.6 91.0397C157.528 90.7026 157.386 90.4478 157.85 89.3541C158.397 88.0656 159.049 86.8295 159.581 85.5335C160.285 83.8179 160.944 82.0799 161.574 80.3419C162.72 77.188 163.859 74.0341 164.96 70.8578C165.499 69.2995 165.904 67.6889 166.436 66.1232C166.825 64.9995 167.357 63.9282 167.769 62.812C167.949 62.3325 167.941 61.7856 168.084 61.2912C168.78 58.894 169.44 56.4742 170.241 54.1069C170.578 53.1181 171.238 52.2491 171.859 51.1328C171.859 51.5748 171.859 51.7996 171.859 52.0318C171.957 52.0318 172.054 52.0393 172.152 52.0393C172.152 51.6348 172.092 51.2227 172.167 50.8407C172.316 50.0691 172.549 49.3199 172.788 48.3985C173.275 48.7805 173.515 48.9678 173.86 49.245C174.392 47.9789 174.901 46.7803 175.508 45.3495C175.845 46.3908 175.56 47.1099 175.313 47.7992C174.062 51.3351 172.466 54.7437 171.59 58.4145C171.125 60.3698 170.556 62.3026 169.994 64.2353C169.754 65.0744 169.35 65.876 169.133 66.7225C168.728 68.2957 168.526 69.9363 168.009 71.4646C167.335 73.4648 166.87 75.5249 165.784 77.4128C164.795 79.1283 164.271 81.121 163.566 82.9939C162.975 84.5671 162.113 85.9904 161.222 87.3988C160.967 87.8034 160.84 88.2978 160.652 88.7548C160.712 88.8672 160.757 88.9645 160.802 89.0694ZM170.526 55.0509C170.608 55.0883 170.691 55.1258 170.773 55.1632C171.17 54.3092 171.567 53.4477 171.964 52.5937C171.867 52.5487 171.77 52.5038 171.672 52.4588C171.29 53.3278 170.908 54.1893 170.526 55.0509Z" fill="#1D232A"/>
<path d="M305.898 41.6861C306.67 42.5776 307.284 43.3118 307.142 44.5553C307.015 45.6491 307.292 46.7878 307.337 47.904C307.352 48.316 307.232 48.7356 307.172 49.1401C308.475 48.9903 309.861 48.8329 311.255 48.6681C311.27 48.758 311.277 48.8479 311.292 48.9378C310.858 49.2899 310.423 49.6495 309.914 50.069C310.198 50.2713 310.378 50.3987 310.648 50.5934C309.517 51.4325 308.43 52.2415 307.209 53.1555C308.093 53.8297 308.985 54.4066 309.741 55.1183C310.393 55.7325 310.925 56.4967 311.449 57.2308C311.734 57.6279 311.772 58.2272 312.468 58.1598C312.521 58.1523 312.611 58.2721 312.641 58.3471C312.903 59.0438 313.158 59.748 313.427 60.4746C312.191 60.115 311.966 61.3212 311.202 61.7482C311.277 61.6133 311.352 61.4785 311.33 61.5234C309.449 59.1112 307.344 57.0211 304.64 55.7101C304.587 56.1221 304.52 56.6765 304.445 57.2683C303.906 56.9611 303.906 56.9611 304.078 55.9423C304.25 54.9235 304.25 54.9235 303.726 54.5564C303.726 55.313 303.951 56.1071 303.673 56.6465C303.314 57.3357 303.509 57.7028 303.838 58.2197C303.936 58.3695 303.808 58.7441 303.673 58.9314C303.336 59.3884 302.61 59.5831 302.767 60.3548C302.572 60.3323 302.34 60.3622 302.19 60.2649C301.928 60.1 301.658 59.8903 301.493 59.6281C301.239 59.2385 300.917 58.8115 300.887 58.377C300.699 55.9873 300.961 53.6424 301.913 51.4699C300.692 51.1778 299.478 51.0204 298.369 50.571C297.89 50.3762 297.643 49.5971 297.283 49.0877C297.613 48.8854 297.935 48.6831 298.452 48.361C298.579 47.5819 299.433 47.7092 300.152 47.7242C300.857 47.7392 301.553 47.949 302.258 47.9789C302.535 47.9939 302.992 47.8291 303.074 47.6268C303.681 46.1585 304.265 44.6827 304.745 43.1694C304.857 42.8098 304.55 42.3154 304.37 41.6112C304.857 41.9483 305.112 42.1206 305.419 42.3379C305.561 42.1656 305.681 41.9858 305.898 41.6861ZM306.647 52.4513C306.707 52.5262 306.775 52.6011 306.835 52.6686C307.591 52.1591 308.356 51.6422 309.112 51.1328C309.067 51.0579 309.015 50.9905 308.97 50.9156C308.206 51.4325 307.427 51.9419 306.647 52.4513Z" fill="#1D232A"/>
<path d="M192.1 45.7613C192.812 45.7238 193.337 45.6939 193.861 45.6639C193.876 45.5815 193.891 45.4991 193.906 45.4242C193.996 45.559 194.063 45.7912 194.168 45.8137C195.292 46.001 194.917 46.8176 194.82 47.4394C194.715 48.0761 194.483 48.6904 194.258 49.2972C193.584 51.0652 192.797 52.8032 192.22 54.6012C191.816 55.8597 191.771 57.2381 191.411 58.5192C190.842 60.5494 190.153 62.5496 189.493 64.5573C189.141 65.6136 188.812 66.6848 188.355 67.7037C187.958 68.5877 187.351 69.3743 186.931 70.2508C186.662 70.8126 186.534 71.4494 186.407 72.0637C186.017 73.9141 185.71 75.7794 185.283 77.6223C184.909 79.2405 184.482 80.8511 183.965 82.4243C183.545 83.7128 182.916 84.934 182.467 86.215C182.017 87.5185 181.68 88.8595 181.29 90.178C181.253 90.3053 181.141 90.4177 181.066 90.53C180.961 90.5151 180.856 90.5001 180.751 90.4851C180.811 89.9682 180.871 89.4513 180.938 88.9194C179.964 89.3464 181.043 90.7623 179.717 91.1818C179.792 90.5525 179.845 90.0806 179.897 89.6086C179.822 89.6011 179.747 89.5861 179.68 89.5786C179.642 89.8858 179.657 90.2079 179.552 90.4851C179.47 90.7098 179.23 90.8747 179.065 91.0619C178.983 90.8447 178.773 90.59 178.826 90.4102C179.53 87.9755 180.257 85.5408 181.006 83.1135C181.328 82.0572 181.612 80.9785 182.092 79.9896C182.968 78.2066 183.268 76.2739 183.71 74.386C184.002 73.1275 184.137 71.824 184.437 70.5654C184.624 69.7863 184.961 69.0371 185.283 68.2955C186.115 66.4077 187.074 64.5797 187.793 62.6544C188.317 61.2535 188.617 59.7628 188.872 58.2795C189.014 57.4704 188.699 56.5639 188.887 55.7698C189.321 53.9344 189.92 52.1365 190.482 50.3385C190.894 49.02 191.344 47.7165 191.793 46.4055C191.891 46.1433 192.041 45.8811 192.1 45.7613ZM182.879 83.99C182.751 84.0275 182.549 84.035 182.511 84.1099C182.025 85.286 181.553 86.4622 181.111 87.6533C181.036 87.8556 181.141 88.1178 181.163 88.41C181.762 86.8518 182.317 85.4134 182.864 83.975C183.231 82.9337 183.605 81.8924 183.972 80.8511C183.837 80.8137 183.703 80.7762 183.568 80.7313C183.343 81.8175 183.111 82.9038 182.879 83.99Z" fill="#1D232A"/>
<path d="M252.1 45.6641C251.845 46.3158 251.508 47.0725 251.261 47.8665C250.826 49.2375 250.309 50.6009 250.077 52.0093C249.568 55.0958 249.238 58.2122 248.796 61.3137C248.302 64.7522 246.863 67.9286 245.904 71.2323C245.342 73.1726 244.99 75.1653 244.518 77.1281C244.324 77.9521 244.091 78.7687 243.814 79.5628C243.155 81.4206 242.376 83.2336 242.136 85.2188C242.001 86.3275 241.904 87.4438 241.762 88.56C241.732 88.7997 241.589 89.0319 241.484 89.2941C241.012 89.0319 240.623 88.8147 240.024 88.4776C240.263 88.8971 240.376 89.1068 240.503 89.3391C239.694 89.4964 238.937 88.7922 239.117 88.0206C239.454 86.5373 239.829 85.054 240.271 83.6007C240.915 81.4731 241.679 79.383 242.308 77.2554C242.69 75.9594 242.885 74.6109 243.237 73.3074C243.544 72.1538 243.942 71.0225 244.301 69.8839C245.133 67.2619 246.122 64.6773 246.736 62.0104C247.238 59.8304 247.313 57.553 247.545 55.3205C247.882 52.0243 248.122 48.7131 249.785 45.7315C249.957 45.4318 250.055 45.0872 250.182 44.7801C250.781 45.0498 251.366 45.3195 252.1 45.6641Z" fill="#1D232A"/>
<path d="M194.648 42.6902C193.914 41.7612 193.375 40.1955 193.472 39.1542C194.499 39.0194 195.555 38.8545 196.611 38.7796C196.791 38.7647 197.136 39.1317 197.166 39.3565C197.315 40.5027 196.371 41.8361 195.233 42.2332C195.016 42.3081 194.843 42.5328 194.648 42.6902Z" fill="#1D232A"/>
<path d="M303.127 92.1184C302.932 92.2308 302.738 92.3356 302.475 92.493C303.067 92.6877 303.599 92.8526 304.318 93.0848C303.951 93.3994 303.764 93.5567 303.569 93.729C303.734 93.7665 303.914 93.8115 304.101 93.8564C303.944 94.2684 303.801 94.6355 303.637 95.0625C303.344 94.8977 303.045 94.7329 302.738 94.5606C302.565 95.512 302.573 95.497 301.704 94.9576C301.554 94.8677 301.277 94.9876 301.067 95.0176C300.775 94.6505 300.475 94.2909 300.206 93.9163C299.794 93.332 299.936 93.0623 300.618 92.875C301.022 92.7627 301.374 92.4705 301.764 92.2757C302.131 92.0884 302.505 91.9311 302.88 91.7588C302.962 91.8712 303.045 91.991 303.127 92.1184Z" fill="#1D232A"/>
<path d="M289.958 93.4967C289.71 93.0248 289.426 92.6128 289.306 92.1483C289.283 92.0584 289.898 91.8037 290.4 91.5265C290.647 90.9272 292.04 90.9946 292.872 91.8112C292.699 92.3955 292.55 92.9274 292.377 93.5042C292.257 93.4518 292.003 93.3319 291.711 93.1971C291.433 93.4518 291.164 93.699 290.782 94.0586C290.692 93.6616 290.624 93.3919 290.557 93.0922C290.4 93.2046 290.235 93.317 289.958 93.4967Z" fill="#1D232A"/>
<path d="M283.14 91.2045C283.088 91.182 283.26 91.2494 283.44 91.3093C283.44 91.3768 283.44 91.4442 283.44 91.5041C283.058 91.5041 282.661 91.4367 282.301 91.5266C282.069 91.5865 281.889 91.8637 281.582 92.1409C281.028 91.6989 280.369 91.1745 279.649 90.5977C280.399 90.0733 280.99 89.6612 281.665 89.1968C282.062 89.4365 282.653 89.6987 283.118 90.1107C283.275 90.2531 283.14 90.74 283.14 91.2045Z" fill="#1D232A"/>
<path d="M251.006 34.0899C251.059 34.3746 251.111 34.6518 251.193 35.0638C251.373 34.8615 251.486 34.7342 251.613 34.5918C252.04 35.1911 252.482 35.783 252.887 36.3898C253.254 36.9441 253.179 37.079 252.175 37.948C251.778 37.7008 251.396 37.4685 250.991 37.2213C250.811 36.4797 250.579 35.6556 250.437 34.8241C250.392 34.5768 250.624 34.2772 250.729 34C250.826 34.0225 250.916 34.0599 251.006 34.0899Z" fill="#1D232A"/>
<path d="M226.705 43.8514C226.308 44.4582 225.904 45.065 225.507 45.6643C225.394 45.5819 225.274 45.507 225.162 45.4246C225.597 44.8328 226.031 44.2334 226.466 43.6416C226.548 43.7165 226.623 43.784 226.705 43.8514Z" fill="#1D232A"/>
<path d="M220.457 60.0251C220.367 60.3547 220.262 60.6844 220.202 61.014C220.135 61.3361 220.112 61.6657 219.895 61.9729C219.895 61.2013 219.895 60.4297 219.895 59.5082C220.15 59.7479 220.307 59.8978 220.457 60.0401V60.0251Z" fill="#1D232A"/>
</g>
<defs>
<clipPath id="clip0_72_5429">
<path d="M0 16C0 7.16344 7.16344 0 16 0H312C320.837 0 328 7.16344 328 16V306H0V16Z" fill="white"/>
</clipPath>
</defs>
</svg>
